%TF.GenerationSoftware,KiCad,Pcbnew,10.0.0*%
%TF.CreationDate,2026-04-30T08:17:19-07:00*%
%TF.ProjectId,Phoenix Blinky Board,50686f65-6e69-4782-9042-6c696e6b7920,rev?*%
%TF.SameCoordinates,Original*%
%TF.FileFunction,Soldermask,Top*%
%TF.FilePolarity,Negative*%
%FSLAX46Y46*%
G04 Gerber Fmt 4.6, Leading zero omitted, Abs format (unit mm)*
G04 Created by KiCad (PCBNEW 10.0.0) date 2026-04-30 08:17:19*
%MOMM*%
%LPD*%
G01*
G04 APERTURE LIST*
G04 Aperture macros list*
%AMRoundRect*
0 Rectangle with rounded corners*
0 $1 Rounding radius*
0 $2 $3 $4 $5 $6 $7 $8 $9 X,Y pos of 4 corners*
0 Add a 4 corners polygon primitive as box body*
4,1,4,$2,$3,$4,$5,$6,$7,$8,$9,$2,$3,0*
0 Add four circle primitives for the rounded corners*
1,1,$1+$1,$2,$3*
1,1,$1+$1,$4,$5*
1,1,$1+$1,$6,$7*
1,1,$1+$1,$8,$9*
0 Add four rect primitives between the rounded corners*
20,1,$1+$1,$2,$3,$4,$5,0*
20,1,$1+$1,$4,$5,$6,$7,0*
20,1,$1+$1,$6,$7,$8,$9,0*
20,1,$1+$1,$8,$9,$2,$3,0*%
G04 Aperture macros list end*
%ADD10R,1.800000X1.800000*%
%ADD11C,1.800000*%
%ADD12RoundRect,0.250000X-0.550000X-0.550000X0.550000X-0.550000X0.550000X0.550000X-0.550000X0.550000X0*%
%ADD13C,1.600000*%
%ADD14R,1.295400X1.295400*%
%ADD15C,1.295400*%
%ADD16R,1.700000X1.700000*%
%ADD17C,1.700000*%
%ADD18C,2.000000*%
%ADD19RoundRect,0.412500X-0.412500X-0.412500X0.412500X-0.412500X0.412500X0.412500X-0.412500X0.412500X0*%
%ADD20C,1.650000*%
G04 APERTURE END LIST*
D10*
%TO.C,D10*%
X140070000Y-129130000D03*
D11*
X142610000Y-129130000D03*
%TD*%
D12*
%TO.C,C2*%
X102250000Y-95750000D03*
D13*
X104250000Y-95750000D03*
%TD*%
D14*
%TO.C,U2*%
X115360000Y-129180000D03*
D15*
X115360000Y-131720000D03*
X115360000Y-134260000D03*
X115360000Y-136800000D03*
X115360000Y-139340000D03*
X115360000Y-141880000D03*
X115360000Y-144420000D03*
X115360000Y-146960000D03*
X122980000Y-146960000D03*
X122980000Y-144420000D03*
X122980000Y-141880000D03*
X122980000Y-139340000D03*
X122980000Y-136800000D03*
X122980000Y-134260000D03*
X122980000Y-131720000D03*
X122980000Y-129180000D03*
%TD*%
D10*
%TO.C,D9*%
X121810000Y-85050000D03*
D11*
X124350000Y-85050000D03*
%TD*%
D10*
%TO.C,D3*%
X68750000Y-130300000D03*
D11*
X71290000Y-130300000D03*
%TD*%
D16*
%TO.C,J1*%
X105540000Y-143005000D03*
D17*
X105540000Y-145545000D03*
%TD*%
D10*
%TO.C,D8*%
X103910000Y-159900000D03*
D11*
X106450000Y-159900000D03*
%TD*%
D10*
%TO.C,D6*%
X73160000Y-99500000D03*
D11*
X75700000Y-99500000D03*
%TD*%
D10*
%TO.C,D5*%
X84820000Y-85050000D03*
D11*
X87360000Y-85050000D03*
%TD*%
D18*
%TO.C,C4*%
X101480000Y-119550000D03*
X106480000Y-119550000D03*
%TD*%
D13*
%TO.C,R3*%
X84390000Y-106930000D03*
X92010000Y-106930000D03*
%TD*%
D10*
%TO.C,D11*%
X140000000Y-147480000D03*
D11*
X142540000Y-147480000D03*
%TD*%
D10*
%TO.C,D2*%
X69460000Y-114680000D03*
D11*
X72000000Y-114680000D03*
%TD*%
D10*
%TO.C,D4*%
X68420000Y-148520000D03*
D11*
X70960000Y-148520000D03*
%TD*%
D12*
%TO.C,U1*%
X85690000Y-133090000D03*
D13*
X85690000Y-135630000D03*
X85690000Y-138170000D03*
X85690000Y-140710000D03*
X93310000Y-140710000D03*
X93310000Y-138170000D03*
X93310000Y-135630000D03*
X93310000Y-133090000D03*
%TD*%
D10*
%TO.C,D7*%
X135600000Y-99500000D03*
D11*
X138140000Y-99500000D03*
%TD*%
D13*
%TO.C,R2*%
X118230000Y-107580000D03*
X125850000Y-107580000D03*
%TD*%
D19*
%TO.C,RV2*%
X101920000Y-88250000D03*
D20*
X104460000Y-88250000D03*
X107000000Y-88250000D03*
%TD*%
M02*
