%TF.GenerationSoftware,KiCad,Pcbnew,10.0.0*%
%TF.CreationDate,2026-04-30T08:17:19-07:00*%
%TF.ProjectId,Phoenix Blinky Board,50686f65-6e69-4782-9042-6c696e6b7920,rev?*%
%TF.SameCoordinates,Original*%
%TF.FileFunction,Copper,L1,Top*%
%TF.FilePolarity,Positive*%
%FSLAX46Y46*%
G04 Gerber Fmt 4.6, Leading zero omitted, Abs format (unit mm)*
G04 Created by KiCad (PCBNEW 10.0.0) date 2026-04-30 08:17:19*
%MOMM*%
%LPD*%
G01*
G04 APERTURE LIST*
G04 Aperture macros list*
%AMRoundRect*
0 Rectangle with rounded corners*
0 $1 Rounding radius*
0 $2 $3 $4 $5 $6 $7 $8 $9 X,Y pos of 4 corners*
0 Add a 4 corners polygon primitive as box body*
4,1,4,$2,$3,$4,$5,$6,$7,$8,$9,$2,$3,0*
0 Add four circle primitives for the rounded corners*
1,1,$1+$1,$2,$3*
1,1,$1+$1,$4,$5*
1,1,$1+$1,$6,$7*
1,1,$1+$1,$8,$9*
0 Add four rect primitives between the rounded corners*
20,1,$1+$1,$2,$3,$4,$5,0*
20,1,$1+$1,$4,$5,$6,$7,0*
20,1,$1+$1,$6,$7,$8,$9,0*
20,1,$1+$1,$8,$9,$2,$3,0*%
G04 Aperture macros list end*
%TA.AperFunction,ComponentPad*%
%ADD10R,1.800000X1.800000*%
%TD*%
%TA.AperFunction,ComponentPad*%
%ADD11C,1.800000*%
%TD*%
%TA.AperFunction,ComponentPad*%
%ADD12RoundRect,0.250000X-0.550000X-0.550000X0.550000X-0.550000X0.550000X0.550000X-0.550000X0.550000X0*%
%TD*%
%TA.AperFunction,ComponentPad*%
%ADD13C,1.600000*%
%TD*%
%TA.AperFunction,ComponentPad*%
%ADD14R,1.295400X1.295400*%
%TD*%
%TA.AperFunction,ComponentPad*%
%ADD15C,1.295400*%
%TD*%
%TA.AperFunction,ComponentPad*%
%ADD16R,1.700000X1.700000*%
%TD*%
%TA.AperFunction,ComponentPad*%
%ADD17C,1.700000*%
%TD*%
%TA.AperFunction,ComponentPad*%
%ADD18C,2.000000*%
%TD*%
%TA.AperFunction,ComponentPad*%
%ADD19RoundRect,0.412500X-0.412500X-0.412500X0.412500X-0.412500X0.412500X0.412500X-0.412500X0.412500X0*%
%TD*%
%TA.AperFunction,ComponentPad*%
%ADD20C,1.650000*%
%TD*%
%TA.AperFunction,ViaPad*%
%ADD21C,0.600000*%
%TD*%
%TA.AperFunction,Conductor*%
%ADD22C,0.200000*%
%TD*%
G04 APERTURE END LIST*
D10*
%TO.P,D10,1,K_1*%
%TO.N,Net-(D10-K)*%
X140070000Y-129130000D03*
D11*
%TO.P,D10,2,A_2*%
%TO.N,Net-(D10-A)*%
X142610000Y-129130000D03*
%TD*%
D12*
%TO.P,C2,1*%
%TO.N,GND*%
X102250000Y-95750000D03*
D13*
%TO.P,C2,2*%
%TO.N,Net-(U1-TRIG)*%
X104250000Y-95750000D03*
%TD*%
D14*
%TO.P,U2,1,Q5_1*%
%TO.N,Net-(D2-A)*%
X115360000Y-129180000D03*
D15*
%TO.P,U2,2,Q1_2*%
%TO.N,Net-(D10-A)*%
X115360000Y-131720000D03*
%TO.P,U2,3,Q0_3*%
%TO.N,Net-(D11-A)*%
X115360000Y-134260000D03*
%TO.P,U2,4,Q2_4*%
%TO.N,Net-(D9-A)*%
X115360000Y-136800000D03*
%TO.P,U2,5,Q6_5*%
%TO.N,Net-(D3-A)*%
X115360000Y-139340000D03*
%TO.P,U2,6,Q7_6*%
%TO.N,Net-(D4-A)*%
X115360000Y-141880000D03*
%TO.P,U2,7,Q3_7*%
%TO.N,Net-(D8-A)*%
X115360000Y-144420000D03*
%TO.P,U2,8,VSS_8*%
%TO.N,GND*%
X115360000Y-146960000D03*
%TO.P,U2,9,Q8_9*%
%TO.N,Net-(D5-A)*%
X122980000Y-146960000D03*
%TO.P,U2,10,Q4_10*%
%TO.N,Net-(D7-A)*%
X122980000Y-144420000D03*
%TO.P,U2,11,Q9_11*%
%TO.N,Net-(D6-A)*%
X122980000Y-141880000D03*
%TO.P,U2,12,Cout_12*%
%TO.N,unconnected-(U2-Cout-Pad12)*%
X122980000Y-139340000D03*
%TO.P,U2,13,CKEN_13*%
%TO.N,GND*%
X122980000Y-136800000D03*
%TO.P,U2,14,CLK_14*%
%TO.N,Net-(U1-OUT)*%
X122980000Y-134260000D03*
%TO.P,U2,15,Reset_15*%
%TO.N,GND*%
X122980000Y-131720000D03*
%TO.P,U2,16,VDD_16*%
%TO.N,+5V*%
X122980000Y-129180000D03*
%TD*%
D10*
%TO.P,D9,1,K_1*%
%TO.N,Net-(D10-K)*%
X121810000Y-85050000D03*
D11*
%TO.P,D9,2,A_2*%
%TO.N,Net-(D9-A)*%
X124350000Y-85050000D03*
%TD*%
D10*
%TO.P,D3,1,K_1*%
%TO.N,Net-(D10-K)*%
X68750000Y-130300000D03*
D11*
%TO.P,D3,2,A_2*%
%TO.N,Net-(D3-A)*%
X71290000Y-130300000D03*
%TD*%
D16*
%TO.P,J1,1,Pin_1_1*%
%TO.N,+5V*%
X105540000Y-143005000D03*
D17*
%TO.P,J1,2,Pin_2_2*%
%TO.N,GND*%
X105540000Y-145545000D03*
%TD*%
D10*
%TO.P,D8,1,K_1*%
%TO.N,Net-(D10-K)*%
X103910000Y-159900000D03*
D11*
%TO.P,D8,2,A_2*%
%TO.N,Net-(D8-A)*%
X106450000Y-159900000D03*
%TD*%
D10*
%TO.P,D6,1,K_1*%
%TO.N,Net-(D10-K)*%
X73160000Y-99500000D03*
D11*
%TO.P,D6,2,A_2*%
%TO.N,Net-(D6-A)*%
X75700000Y-99500000D03*
%TD*%
D10*
%TO.P,D5,1,K_1*%
%TO.N,Net-(D10-K)*%
X84820000Y-85050000D03*
D11*
%TO.P,D5,2,A_2*%
%TO.N,Net-(D5-A)*%
X87360000Y-85050000D03*
%TD*%
D18*
%TO.P,C4,1*%
%TO.N,Net-(U1-CONT)*%
X101480000Y-119550000D03*
%TO.P,C4,2*%
%TO.N,GND*%
X106480000Y-119550000D03*
%TD*%
D13*
%TO.P,R3,1*%
%TO.N,+5V*%
X84390000Y-106930000D03*
%TO.P,R3,2*%
%TO.N,Net-(U1-DISCH)*%
X92010000Y-106930000D03*
%TD*%
D10*
%TO.P,D11,1,K_1*%
%TO.N,Net-(D10-K)*%
X140000000Y-147480000D03*
D11*
%TO.P,D11,2,A_2*%
%TO.N,Net-(D11-A)*%
X142540000Y-147480000D03*
%TD*%
D10*
%TO.P,D2,1,K_1*%
%TO.N,Net-(D10-K)*%
X69460000Y-114680000D03*
D11*
%TO.P,D2,2,A_2*%
%TO.N,Net-(D2-A)*%
X72000000Y-114680000D03*
%TD*%
D10*
%TO.P,D4,1,K_1*%
%TO.N,Net-(D10-K)*%
X68420000Y-148520000D03*
D11*
%TO.P,D4,2,A_2*%
%TO.N,Net-(D4-A)*%
X70960000Y-148520000D03*
%TD*%
D12*
%TO.P,U1,1,GND_1*%
%TO.N,GND*%
X85690000Y-133090000D03*
D13*
%TO.P,U1,2,TRIG_2*%
%TO.N,Net-(U1-TRIG)*%
X85690000Y-135630000D03*
%TO.P,U1,3,OUT_3*%
%TO.N,Net-(U1-OUT)*%
X85690000Y-138170000D03*
%TO.P,U1,4,~{RST}_4*%
%TO.N,+5V*%
X85690000Y-140710000D03*
%TO.P,U1,5,CONT_5*%
%TO.N,Net-(U1-CONT)*%
X93310000Y-140710000D03*
%TO.P,U1,6,THRES_6*%
%TO.N,Net-(U1-THRES)*%
X93310000Y-138170000D03*
%TO.P,U1,7,DISCH_7*%
%TO.N,Net-(U1-DISCH)*%
X93310000Y-135630000D03*
%TO.P,U1,8,VCC_8*%
%TO.N,+5V*%
X93310000Y-133090000D03*
%TD*%
D10*
%TO.P,D7,1,K_1*%
%TO.N,Net-(D10-K)*%
X135600000Y-99500000D03*
D11*
%TO.P,D7,2,A_2*%
%TO.N,Net-(D7-A)*%
X138140000Y-99500000D03*
%TD*%
D13*
%TO.P,R2,1*%
%TO.N,Net-(D10-K)*%
X118230000Y-107580000D03*
%TO.P,R2,2*%
%TO.N,GND*%
X125850000Y-107580000D03*
%TD*%
D19*
%TO.P,RV2,1,1_1*%
%TO.N,Net-(U1-DISCH)*%
X101920000Y-88250000D03*
D20*
%TO.P,RV2,2,2_2*%
X104460000Y-88250000D03*
%TO.P,RV2,3,3_3*%
%TO.N,Net-(U1-THRES)*%
X107000000Y-88250000D03*
%TD*%
D21*
%TO.N,Net-(U1-TRIG)*%
X89000000Y-127500000D03*
%TO.N,Net-(D9-A)*%
X112000000Y-113750000D03*
%TO.N,Net-(D7-A)*%
X129750000Y-131500000D03*
%TO.N,Net-(U1-OUT)*%
X126250000Y-138500000D03*
%TO.N,+5V*%
X100750000Y-139250000D03*
%TO.N,Net-(U1-THRES)*%
X105500000Y-100000000D03*
X93750000Y-126500000D03*
%TD*%
%TO.N,Net-(D10-K)*%
D22*
X79800000Y-159900000D02*
X103910000Y-159900000D01*
X121810000Y-85050000D02*
X121810000Y-85710000D01*
X73160000Y-110980000D02*
X69460000Y-114680000D01*
X135600000Y-99500000D02*
X126310000Y-99500000D01*
X120610000Y-83850000D02*
X86020000Y-83850000D01*
X86020000Y-83850000D02*
X84820000Y-85050000D01*
X140000000Y-147480000D02*
X140000000Y-129200000D01*
X68750000Y-130300000D02*
X68750000Y-148190000D01*
X73160000Y-99500000D02*
X73160000Y-110980000D01*
X126310000Y-99500000D02*
X118230000Y-107580000D01*
X84820000Y-85050000D02*
X84820000Y-87840000D01*
X106250000Y-157560000D02*
X129920000Y-157560000D01*
X68420000Y-148520000D02*
X79800000Y-159900000D01*
X129920000Y-157560000D02*
X140000000Y-147480000D01*
X103910000Y-159900000D02*
X106250000Y-157560000D01*
X68750000Y-148190000D02*
X68420000Y-148520000D01*
X121810000Y-85710000D02*
X135600000Y-99500000D01*
X69460000Y-114680000D02*
X69460000Y-129590000D01*
X69460000Y-129590000D02*
X68750000Y-130300000D01*
X121810000Y-85050000D02*
X120610000Y-83850000D01*
X140000000Y-129200000D02*
X140070000Y-129130000D01*
X84820000Y-87840000D02*
X73160000Y-99500000D01*
%TO.N,Net-(D10-A)*%
X119150000Y-127930000D02*
X115360000Y-131720000D01*
X142610000Y-129130000D02*
X141410000Y-127930000D01*
X141410000Y-127930000D02*
X119150000Y-127930000D01*
%TO.N,Net-(U1-TRIG)*%
X89000000Y-127500000D02*
X89000000Y-132320000D01*
X89000000Y-132320000D02*
X85690000Y-135630000D01*
%TO.N,Net-(D9-A)*%
X115360000Y-136800000D02*
X112000000Y-133440000D01*
X112000000Y-133440000D02*
X112000000Y-113750000D01*
%TO.N,Net-(D5-A)*%
X113750000Y-111440000D02*
X113750000Y-131450251D01*
X115612049Y-133312300D02*
X115752551Y-133312300D01*
X113750000Y-131450251D02*
X115612049Y-133312300D01*
X122032300Y-139592049D02*
X122032300Y-146012300D01*
X122032300Y-146012300D02*
X122980000Y-146960000D01*
X87360000Y-85050000D02*
X113750000Y-111440000D01*
X115752551Y-133312300D02*
X122032300Y-139592049D01*
%TO.N,Net-(D7-A)*%
X129750000Y-137650000D02*
X129750000Y-131500000D01*
X122980000Y-144420000D02*
X129750000Y-137650000D01*
%TO.N,Net-(U1-OUT)*%
X126500000Y-138250000D02*
X126250000Y-138500000D01*
X126500000Y-137780000D02*
X126500000Y-138250000D01*
X122980000Y-134260000D02*
X126500000Y-137780000D01*
%TO.N,+5V*%
X123372551Y-147907700D02*
X110442700Y-147907700D01*
X128278529Y-129180000D02*
X130350000Y-131251471D01*
X130350000Y-140930251D02*
X123372551Y-147907700D01*
X110442700Y-147907700D02*
X105540000Y-143005000D01*
X93310000Y-130810000D02*
X93310000Y-133090000D01*
X122980000Y-129180000D02*
X128278529Y-129180000D01*
X130350000Y-131251471D02*
X130350000Y-140930251D01*
X84390000Y-106930000D02*
X84390000Y-121890000D01*
X104505000Y-143005000D02*
X105540000Y-143005000D01*
X85690000Y-140710000D02*
X93310000Y-133090000D01*
X100750000Y-139250000D02*
X104505000Y-143005000D01*
X84390000Y-121890000D02*
X93310000Y-130810000D01*
%TO.N,Net-(U1-CONT)*%
X101480000Y-132540000D02*
X93310000Y-140710000D01*
X101480000Y-119550000D02*
X101480000Y-132540000D01*
%TO.N,Net-(U1-DISCH)*%
X91250000Y-125250000D02*
X95250000Y-129249999D01*
X95250000Y-129249999D02*
X95250000Y-133690000D01*
X95250000Y-133690000D02*
X93310000Y-135630000D01*
X92010000Y-106930000D02*
X91250000Y-107690000D01*
X91250000Y-107690000D02*
X91250000Y-125250000D01*
%TO.N,Net-(U1-THRES)*%
X107000000Y-98500000D02*
X105500000Y-100000000D01*
X96750000Y-129500000D02*
X96750000Y-134730000D01*
X96750000Y-134730000D02*
X93310000Y-138170000D01*
X93750000Y-126500000D02*
X96750000Y-129500000D01*
X107000000Y-88250000D02*
X107000000Y-98500000D01*
%TD*%
%TA.AperFunction,Conductor*%
%TO.N,GND*%
G36*
X103350844Y-73238342D02*
G01*
X105691152Y-73284904D01*
X105692847Y-73284950D01*
X108036130Y-73367055D01*
X108039471Y-73367217D01*
X108681591Y-73407332D01*
X108686348Y-73407722D01*
X109325710Y-73472734D01*
X109329331Y-73473156D01*
X110229197Y-73591561D01*
X110231500Y-73591887D01*
X111131586Y-73728705D01*
X111133874Y-73729077D01*
X112030822Y-73883850D01*
X112033165Y-73884278D01*
X112926719Y-74056945D01*
X112929101Y-74057430D01*
X113816098Y-74247331D01*
X113818877Y-74247926D01*
X113821296Y-74248468D01*
X114707338Y-74456784D01*
X114709643Y-74457351D01*
X115491804Y-74657853D01*
X115591341Y-74683369D01*
X115593740Y-74684009D01*
X116470839Y-74927664D01*
X116473220Y-74928352D01*
X117188601Y-75143357D01*
X117317506Y-75182099D01*
X117320108Y-75182913D01*
X118157957Y-75454951D01*
X118160408Y-75455776D01*
X118991881Y-75746086D01*
X118994384Y-75746991D01*
X119819217Y-76055460D01*
X119821757Y-76056442D01*
X120639520Y-76382924D01*
X120641979Y-76383937D01*
X121452612Y-76728404D01*
X121454984Y-76729444D01*
X122257998Y-77091697D01*
X122260412Y-77092818D01*
X122524088Y-77218811D01*
X123055470Y-77472722D01*
X123057922Y-77473927D01*
X123559732Y-77727435D01*
X123841183Y-77869620D01*
X123843603Y-77870876D01*
X124598346Y-78273328D01*
X124617541Y-78283563D01*
X124619923Y-78284866D01*
X125384502Y-78714490D01*
X125386823Y-78715829D01*
X126141582Y-79162136D01*
X126143892Y-79163536D01*
X126473173Y-79368179D01*
X126888633Y-79626382D01*
X126890924Y-79627841D01*
X127625396Y-80107102D01*
X127627650Y-80108609D01*
X128351447Y-80604021D01*
X128353689Y-80605592D01*
X129066869Y-81117212D01*
X129068988Y-81118767D01*
X129788506Y-81658544D01*
X129790463Y-81660044D01*
X130498724Y-82214507D01*
X130500647Y-82216045D01*
X131197179Y-82784800D01*
X131199091Y-82786395D01*
X131883710Y-83369295D01*
X131885579Y-83370920D01*
X132263361Y-83706206D01*
X132558051Y-83967748D01*
X132559940Y-83969459D01*
X133220061Y-84580039D01*
X133221915Y-84581790D01*
X133869484Y-85205954D01*
X133871302Y-85207743D01*
X134506035Y-85845238D01*
X134507818Y-85847066D01*
X135084353Y-86450500D01*
X135104859Y-86471962D01*
X135106588Y-86473809D01*
X135151665Y-86522987D01*
X135690393Y-87110731D01*
X135692106Y-87112639D01*
X136262464Y-87761323D01*
X136264137Y-87763266D01*
X136284252Y-87787120D01*
X136820855Y-88423473D01*
X136820903Y-88423529D01*
X136822490Y-88425451D01*
X137314183Y-89033637D01*
X137365510Y-89097124D01*
X137367100Y-89099133D01*
X137896154Y-89781919D01*
X137897704Y-89783963D01*
X138412606Y-90477671D01*
X138414113Y-90479745D01*
X138914716Y-91184164D01*
X138916202Y-91186303D01*
X139396987Y-91893850D01*
X139398447Y-91896049D01*
X139863869Y-92613371D01*
X139865283Y-92615601D01*
X140315266Y-93342569D01*
X140316631Y-93344828D01*
X140750960Y-94081085D01*
X140752277Y-94083372D01*
X141170848Y-94828711D01*
X141172116Y-94831027D01*
X141574743Y-95585158D01*
X141575961Y-95587500D01*
X141962526Y-96350186D01*
X141963695Y-96352553D01*
X142334121Y-97123690D01*
X142335235Y-97126074D01*
X142691699Y-97910358D01*
X142692758Y-97912755D01*
X143032486Y-98704208D01*
X143033494Y-98706626D01*
X143356355Y-99504901D01*
X143357311Y-99507340D01*
X143663178Y-100312101D01*
X143664083Y-100314559D01*
X143952887Y-101125606D01*
X143953740Y-101128082D01*
X144225408Y-101945231D01*
X144226208Y-101947726D01*
X144480590Y-102770564D01*
X144481337Y-102773075D01*
X144718418Y-103601588D01*
X144719091Y-103604034D01*
X144944364Y-104456861D01*
X144944966Y-104459235D01*
X145153313Y-105316194D01*
X145153868Y-105318579D01*
X145345232Y-106179395D01*
X145345740Y-106181791D01*
X145520051Y-107046133D01*
X145520511Y-107048538D01*
X145677713Y-107916133D01*
X145678126Y-107918546D01*
X145818188Y-108789190D01*
X145818553Y-108791612D01*
X145941418Y-109665027D01*
X145941735Y-109667456D01*
X146046779Y-110538619D01*
X146047223Y-110542928D01*
X146099462Y-111155574D01*
X146099834Y-111161776D01*
X146121405Y-111778665D01*
X146121477Y-111782040D01*
X146156084Y-116260992D01*
X146156087Y-116261550D01*
X146178293Y-123148356D01*
X146178294Y-123148700D01*
X146183886Y-135609748D01*
X146183886Y-159323356D01*
X146170820Y-159378761D01*
X145745796Y-160229756D01*
X145744681Y-160231934D01*
X145401288Y-160886830D01*
X145398931Y-160891117D01*
X145033211Y-161526330D01*
X145030687Y-161530521D01*
X144640193Y-162150820D01*
X144637505Y-162154909D01*
X144222611Y-162759656D01*
X144219780Y-162763613D01*
X143779650Y-163354077D01*
X143776685Y-163357897D01*
X143314012Y-163930574D01*
X143310901Y-163934274D01*
X142826255Y-164488482D01*
X142823002Y-164492060D01*
X142317106Y-165026960D01*
X142313631Y-165030490D01*
X141814774Y-165517430D01*
X141811078Y-165520893D01*
X141293193Y-165986659D01*
X141289360Y-165989967D01*
X140752913Y-166434182D01*
X140748944Y-166437334D01*
X140196517Y-166857947D01*
X140191601Y-166861503D01*
X139686213Y-167208607D01*
X139680276Y-167212441D01*
X139158499Y-167528636D01*
X139152357Y-167532123D01*
X138613408Y-167818102D01*
X138607071Y-167821236D01*
X138050681Y-168076967D01*
X138044821Y-168079480D01*
X137573646Y-168267347D01*
X137568319Y-168269331D01*
X137089864Y-168435118D01*
X137083449Y-168437147D01*
X136653169Y-168560542D01*
X136645634Y-168562450D01*
X136210436Y-168658214D01*
X136203035Y-168659608D01*
X135739065Y-168732507D01*
X135731826Y-168733427D01*
X135259918Y-168779343D01*
X135254173Y-168779768D01*
X134670813Y-168809270D01*
X134666586Y-168809411D01*
X134078689Y-168819064D01*
X134074484Y-168819062D01*
X133488845Y-168808817D01*
X133484671Y-168808674D01*
X132905209Y-168778992D01*
X132898833Y-168778500D01*
X132464241Y-168733687D01*
X132455715Y-168732507D01*
X132031983Y-168658819D01*
X132023098Y-168656937D01*
X131639883Y-168560945D01*
X131630707Y-168558266D01*
X131253601Y-168432229D01*
X131246042Y-168429427D01*
X130816093Y-168253911D01*
X130810077Y-168251267D01*
X130388706Y-168052598D01*
X130382033Y-168049202D01*
X130338105Y-168025149D01*
X130064118Y-167875125D01*
X129897433Y-167783855D01*
X129890200Y-167779569D01*
X129425678Y-167482623D01*
X129419128Y-167478134D01*
X129187558Y-167308288D01*
X128953602Y-167136691D01*
X128947730Y-167132107D01*
X128499683Y-166759942D01*
X128495242Y-166756070D01*
X127882599Y-166195536D01*
X127879410Y-166192512D01*
X127281992Y-165605676D01*
X127279802Y-165603471D01*
X125241279Y-163498123D01*
X125241279Y-163498122D01*
X125234969Y-163491605D01*
X125234400Y-163490591D01*
X125189368Y-163444508D01*
X125189143Y-163444276D01*
X125189142Y-163444275D01*
X125140573Y-163394115D01*
X125136777Y-163390692D01*
X124756777Y-163001831D01*
X124756777Y-163001830D01*
X124746944Y-162991768D01*
X124743844Y-162986547D01*
X124700954Y-162944705D01*
X124699946Y-162943673D01*
X124699906Y-162943633D01*
X124659084Y-162901860D01*
X124653765Y-162897680D01*
X124643797Y-162888945D01*
X124251802Y-162506532D01*
X124241870Y-162496843D01*
X124236491Y-162488541D01*
X124194812Y-162450935D01*
X124154624Y-162411730D01*
X124148114Y-162406861D01*
X124148283Y-162406634D01*
X124135693Y-162397594D01*
X123847387Y-162137467D01*
X123837790Y-162128808D01*
X123829718Y-162117714D01*
X123789003Y-162084790D01*
X123750132Y-162049718D01*
X123750129Y-162049716D01*
X123750127Y-162049715D01*
X123749417Y-162049352D01*
X123727864Y-162035350D01*
X123415370Y-161782651D01*
X123410807Y-161778961D01*
X123400974Y-161767046D01*
X123359738Y-161737664D01*
X123356790Y-161735280D01*
X123320350Y-161705814D01*
X123317643Y-161704611D01*
X123296052Y-161692287D01*
X123036650Y-161507458D01*
X123026824Y-161500457D01*
X123015001Y-161487962D01*
X122973341Y-161462349D01*
X122969911Y-161459905D01*
X122969910Y-161459904D01*
X122933511Y-161433970D01*
X122933503Y-161433965D01*
X122928691Y-161432169D01*
X122907115Y-161421633D01*
X122633435Y-161253373D01*
X122633435Y-161253372D01*
X122623250Y-161247110D01*
X122610267Y-161235174D01*
X122567322Y-161212727D01*
X122563658Y-161210474D01*
X122563637Y-161210462D01*
X122543196Y-161197895D01*
X122526022Y-161187336D01*
X122520554Y-161185707D01*
X122498517Y-161176762D01*
X122219457Y-161030899D01*
X122208961Y-161025413D01*
X122194804Y-161014149D01*
X122150764Y-160994993D01*
X122146839Y-160992941D01*
X122146838Y-160992940D01*
X122108205Y-160972747D01*
X122108196Y-160972744D01*
X122102095Y-160971381D01*
X122079684Y-160964076D01*
X121784195Y-160835551D01*
X121784195Y-160835552D01*
X121774569Y-160831365D01*
X121754875Y-160818486D01*
X121714378Y-160805184D01*
X121675297Y-160788186D01*
X121675294Y-160788185D01*
X121675295Y-160788185D01*
X121662404Y-160786257D01*
X121642058Y-160781430D01*
X121365049Y-160690446D01*
X121356963Y-160687790D01*
X121328612Y-160673943D01*
X121294634Y-160667318D01*
X121287272Y-160664900D01*
X121287271Y-160664899D01*
X121261749Y-160656516D01*
X121261742Y-160656515D01*
X121261741Y-160656514D01*
X121261734Y-160656514D01*
X121238717Y-160655233D01*
X121221879Y-160653133D01*
X120949690Y-160600066D01*
X120940724Y-160598318D01*
X120913363Y-160588651D01*
X120876328Y-160585762D01*
X120869331Y-160584398D01*
X120839864Y-160578653D01*
X120839853Y-160578653D01*
X120820018Y-160580028D01*
X120801802Y-160579950D01*
X120452978Y-160552747D01*
X120440472Y-160551771D01*
X120425818Y-160547566D01*
X120374975Y-160546664D01*
X120374392Y-160546618D01*
X120371269Y-160546375D01*
X120371267Y-160546374D01*
X120328063Y-160543006D01*
X120324288Y-160542712D01*
X120324287Y-160542712D01*
X120324277Y-160542712D01*
X120321625Y-160543206D01*
X120296760Y-160545277D01*
X119709108Y-160534862D01*
X119709108Y-160534861D01*
X119695074Y-160534612D01*
X119686125Y-160532393D01*
X119629347Y-160533448D01*
X119627092Y-160533409D01*
X119627091Y-160533408D01*
X119575064Y-160532487D01*
X119572545Y-160532443D01*
X119572544Y-160532443D01*
X119572542Y-160532443D01*
X119564470Y-160533361D01*
X119564425Y-160532970D01*
X119549558Y-160534934D01*
X119266243Y-160540206D01*
X119252852Y-160540455D01*
X119241247Y-160538144D01*
X119187133Y-160541678D01*
X119184248Y-160541732D01*
X119184244Y-160541731D01*
X119132925Y-160542687D01*
X119125876Y-160543749D01*
X119108193Y-160546834D01*
X118822419Y-160565502D01*
X118822416Y-160565502D01*
X118809052Y-160566374D01*
X118797360Y-160564608D01*
X118743502Y-160570654D01*
X118740607Y-160570844D01*
X118740588Y-160570846D01*
X118689354Y-160574194D01*
X118682315Y-160575592D01*
X118664845Y-160579488D01*
X118380242Y-160611447D01*
X118380241Y-160611446D01*
X118366936Y-160612940D01*
X118355170Y-160611721D01*
X118301645Y-160620273D01*
X118298750Y-160620599D01*
X118298748Y-160620598D01*
X118298747Y-160620599D01*
X118247749Y-160626325D01*
X118240841Y-160628036D01*
X118223503Y-160632760D01*
X117932928Y-160679193D01*
X117932928Y-160679192D01*
X117921196Y-160681066D01*
X117903261Y-160680484D01*
X117856386Y-160691423D01*
X117852045Y-160692117D01*
X117852032Y-160692120D01*
X117808809Y-160699028D01*
X117808803Y-160699029D01*
X117803246Y-160701513D01*
X117780848Y-160709053D01*
X117567331Y-160758885D01*
X117567332Y-160758886D01*
X117557238Y-160761242D01*
X117533243Y-160762743D01*
X117493328Y-160776158D01*
X117487587Y-160777497D01*
X117487586Y-160777497D01*
X117452317Y-160785730D01*
X117440258Y-160792179D01*
X117421290Y-160800370D01*
X117206987Y-160872398D01*
X117206986Y-160872397D01*
X117197147Y-160875703D01*
X117173441Y-160879465D01*
X117134967Y-160896603D01*
X117129388Y-160898479D01*
X117129376Y-160898484D01*
X117095009Y-160910036D01*
X117095001Y-160910040D01*
X117083633Y-160917586D01*
X117065521Y-160927540D01*
X116859018Y-161019536D01*
X116849540Y-161023758D01*
X116826267Y-161029757D01*
X116789606Y-161050458D01*
X116784235Y-161052851D01*
X116784220Y-161052859D01*
X116751131Y-161067600D01*
X116740499Y-161076213D01*
X116723420Y-161087833D01*
X116531311Y-161196315D01*
X116531310Y-161196316D01*
X116521205Y-161202021D01*
X116503162Y-161208151D01*
X116464039Y-161234302D01*
X116459974Y-161236598D01*
X116459971Y-161236598D01*
X116423056Y-161257445D01*
X116423047Y-161257452D01*
X116417718Y-161262680D01*
X116399799Y-161277244D01*
X116145119Y-161447490D01*
X116134439Y-161454630D01*
X116121422Y-161459872D01*
X116079842Y-161491125D01*
X116076970Y-161493045D01*
X116076970Y-161493046D01*
X116036548Y-161520068D01*
X116035761Y-161520966D01*
X116017031Y-161538337D01*
X115777431Y-161718436D01*
X115777430Y-161718435D01*
X115767154Y-161726159D01*
X115754458Y-161732107D01*
X115714656Y-161765620D01*
X115711892Y-161767699D01*
X115673041Y-161796902D01*
X115673032Y-161796911D01*
X115672302Y-161797844D01*
X115654557Y-161816228D01*
X115425272Y-162009298D01*
X115425273Y-162009299D01*
X115415443Y-162017576D01*
X115403083Y-162024224D01*
X115365192Y-162059892D01*
X115325381Y-162093416D01*
X115325380Y-162093417D01*
X115325378Y-162093419D01*
X115325376Y-162093421D01*
X115324689Y-162094406D01*
X115307996Y-162113732D01*
X115094043Y-162315137D01*
X115094042Y-162315137D01*
X115083784Y-162324792D01*
X115075988Y-162329351D01*
X115035937Y-162369832D01*
X115034325Y-162371351D01*
X115034303Y-162371373D01*
X114994413Y-162408925D01*
X114989272Y-162415222D01*
X114988943Y-162414954D01*
X114979756Y-162426621D01*
X113844617Y-163574028D01*
X113844618Y-163574029D01*
X113836375Y-163582360D01*
X113832934Y-163584447D01*
X113790085Y-163629153D01*
X113789368Y-163629878D01*
X113789365Y-163629879D01*
X113789366Y-163629879D01*
X113746528Y-163673179D01*
X113745679Y-163674299D01*
X113736425Y-163685138D01*
X113329588Y-164109609D01*
X112851676Y-164608235D01*
X112571389Y-164900670D01*
X112571080Y-164900992D01*
X111911444Y-165584278D01*
X111909406Y-165586340D01*
X111245358Y-166242771D01*
X111243272Y-166244785D01*
X110664775Y-166790492D01*
X110659057Y-166795562D01*
X110317028Y-167080507D01*
X110310080Y-167085890D01*
X109987721Y-167317836D01*
X109983484Y-167320753D01*
X109644264Y-167544076D01*
X109639910Y-167546815D01*
X109291704Y-167755887D01*
X109287241Y-167758442D01*
X108931631Y-167952371D01*
X108926616Y-167954960D01*
X108586892Y-168120636D01*
X108581314Y-168123187D01*
X108235203Y-168271266D01*
X108229507Y-168273538D01*
X107876489Y-168404328D01*
X107870688Y-168406316D01*
X107511115Y-168519657D01*
X107505322Y-168521329D01*
X107128937Y-168620137D01*
X107123179Y-168621503D01*
X106742443Y-168702253D01*
X106736626Y-168703342D01*
X106352509Y-168765828D01*
X106346648Y-168766639D01*
X105957680Y-168810994D01*
X105952587Y-168811468D01*
X105511146Y-168843434D01*
X105506848Y-168843670D01*
X105062632Y-168860368D01*
X105058328Y-168860455D01*
X104613852Y-168861724D01*
X104609549Y-168861662D01*
X104167098Y-168847565D01*
X104162007Y-168847298D01*
X103658485Y-168810491D01*
X103652624Y-168809922D01*
X103153711Y-168749531D01*
X103147889Y-168748686D01*
X102652346Y-168664691D01*
X102646568Y-168663570D01*
X102157429Y-168556562D01*
X102150877Y-168554941D01*
X101714464Y-168434246D01*
X101707201Y-168431995D01*
X101688606Y-168425602D01*
X101655207Y-168414119D01*
X101281498Y-168285634D01*
X101274393Y-168282945D01*
X100858437Y-168110784D01*
X100851513Y-168107667D01*
X100445679Y-167909738D01*
X100439282Y-167906382D01*
X100014349Y-167667389D01*
X100008419Y-167663832D01*
X99702249Y-167468405D01*
X99597086Y-167401280D01*
X99591386Y-167397415D01*
X99195278Y-167112336D01*
X99189783Y-167108144D01*
X99012630Y-166965005D01*
X98806932Y-166798801D01*
X98802809Y-166795319D01*
X98630426Y-166643170D01*
X98343698Y-166390098D01*
X98340835Y-166387490D01*
X97891953Y-165965591D01*
X97889195Y-165962916D01*
X97453691Y-165527144D01*
X97450997Y-165524364D01*
X97446147Y-165519198D01*
X97022691Y-165068109D01*
X95805427Y-163767689D01*
X95802428Y-163762385D01*
X95760455Y-163719645D01*
X95759446Y-163718567D01*
X95719536Y-163675930D01*
X95714269Y-163671606D01*
X95704487Y-163662656D01*
X95694884Y-163652878D01*
X95218196Y-163167485D01*
X95215676Y-163163223D01*
X95172100Y-163120547D01*
X95129330Y-163076996D01*
X95129329Y-163076995D01*
X95129328Y-163076994D01*
X95126350Y-163074666D01*
X95115962Y-163065569D01*
X95035273Y-162986547D01*
X94805638Y-162761654D01*
X94628835Y-162588503D01*
X94618429Y-162578312D01*
X94614635Y-162572287D01*
X94571424Y-162532278D01*
X94529362Y-162491084D01*
X94529360Y-162491082D01*
X94522862Y-162486203D01*
X94523312Y-162485603D01*
X94512476Y-162477696D01*
X93612310Y-161644220D01*
X93612309Y-161644219D01*
X93603902Y-161636434D01*
X93592175Y-161620670D01*
X93555732Y-161591833D01*
X93552203Y-161588565D01*
X93521627Y-161560255D01*
X93521619Y-161560249D01*
X93514367Y-161556426D01*
X93495255Y-161543978D01*
X93307620Y-161395506D01*
X93300644Y-161389986D01*
X93280024Y-161368211D01*
X93249186Y-161349268D01*
X93243412Y-161344700D01*
X93220812Y-161326817D01*
X93201452Y-161318457D01*
X93185711Y-161310277D01*
X92977234Y-161182219D01*
X92977233Y-161182218D01*
X92968381Y-161176780D01*
X92950339Y-161161020D01*
X92912470Y-161142436D01*
X92907466Y-161139362D01*
X92907454Y-161139356D01*
X92894456Y-161131372D01*
X92876507Y-161120347D01*
X92876502Y-161120345D01*
X92876501Y-161120345D01*
X92863495Y-161116477D01*
X92844215Y-161108940D01*
X92648979Y-161013130D01*
X92638309Y-161007894D01*
X92624019Y-160997091D01*
X92579361Y-160978965D01*
X92575425Y-160977034D01*
X92575423Y-160977032D01*
X92536088Y-160957730D01*
X92536085Y-160957729D01*
X92530168Y-160956564D01*
X92507496Y-160949798D01*
X92313350Y-160871001D01*
X92313350Y-160871000D01*
X92302328Y-160866526D01*
X92287325Y-160856767D01*
X92241499Y-160841838D01*
X92237425Y-160840185D01*
X92237415Y-160840182D01*
X92196820Y-160823706D01*
X92196815Y-160823704D01*
X92196814Y-160823704D01*
X92196812Y-160823703D01*
X92196810Y-160823703D01*
X92190842Y-160822961D01*
X92167745Y-160817812D01*
X91968531Y-160752914D01*
X91952787Y-160746562D01*
X91949761Y-160745093D01*
X91941569Y-160740553D01*
X91939184Y-160739958D01*
X91931133Y-160736050D01*
X91908656Y-160715627D01*
X91884681Y-160696989D01*
X91883051Y-160692363D01*
X91879421Y-160689065D01*
X91871553Y-160659733D01*
X91861461Y-160631091D01*
X91862590Y-160626318D01*
X91861320Y-160621581D01*
X91870560Y-160592650D01*
X91877555Y-160563100D01*
X91881085Y-160559695D01*
X91882578Y-160555023D01*
X91905992Y-160535679D01*
X91927852Y-160514603D01*
X91933052Y-160513326D01*
X91936444Y-160510524D01*
X91952105Y-160508647D01*
X91985286Y-160500500D01*
X102385501Y-160500500D01*
X102452540Y-160520185D01*
X102498295Y-160572989D01*
X102509501Y-160624500D01*
X102509501Y-160847876D01*
X102515908Y-160907483D01*
X102566202Y-161042328D01*
X102566206Y-161042335D01*
X102652452Y-161157544D01*
X102652455Y-161157547D01*
X102767664Y-161243793D01*
X102767671Y-161243797D01*
X102902517Y-161294091D01*
X102902516Y-161294091D01*
X102909444Y-161294835D01*
X102962127Y-161300500D01*
X104857872Y-161300499D01*
X104917483Y-161294091D01*
X105052331Y-161243796D01*
X105167546Y-161157546D01*
X105253796Y-161042331D01*
X105268435Y-161003081D01*
X105283601Y-160962420D01*
X105325471Y-160906486D01*
X105390936Y-160882068D01*
X105459209Y-160896919D01*
X105487464Y-160918071D01*
X105537636Y-160968243D01*
X105537641Y-160968247D01*
X105654090Y-161052851D01*
X105715978Y-161097815D01*
X105843627Y-161162856D01*
X105912393Y-161197895D01*
X105912396Y-161197896D01*
X106017221Y-161231955D01*
X106122049Y-161266015D01*
X106339778Y-161300500D01*
X106339779Y-161300500D01*
X106560221Y-161300500D01*
X106560222Y-161300500D01*
X106777951Y-161266015D01*
X106987606Y-161197895D01*
X107184022Y-161097815D01*
X107362365Y-160968242D01*
X107518242Y-160812365D01*
X107647815Y-160634022D01*
X107747895Y-160437606D01*
X107816015Y-160227951D01*
X107850500Y-160010222D01*
X107850500Y-159789778D01*
X107816015Y-159572049D01*
X107747895Y-159362394D01*
X107747895Y-159362393D01*
X107686825Y-159242539D01*
X107647815Y-159165978D01*
X107631260Y-159143192D01*
X107518247Y-158987641D01*
X107518243Y-158987636D01*
X107362363Y-158831756D01*
X107362358Y-158831752D01*
X107184025Y-158702187D01*
X107184024Y-158702186D01*
X107184022Y-158702185D01*
X107066791Y-158642452D01*
X106987606Y-158602104D01*
X106987603Y-158602103D01*
X106777952Y-158533985D01*
X106669086Y-158516742D01*
X106560222Y-158499500D01*
X106459098Y-158499500D01*
X106392059Y-158479815D01*
X106346304Y-158427011D01*
X106336360Y-158357853D01*
X106365385Y-158294297D01*
X106371417Y-158287819D01*
X106462417Y-158196819D01*
X106523740Y-158163334D01*
X106550098Y-158160500D01*
X129833331Y-158160500D01*
X129833347Y-158160501D01*
X129840943Y-158160501D01*
X129999054Y-158160501D01*
X129999057Y-158160501D01*
X130151785Y-158119577D01*
X130201904Y-158090639D01*
X130288716Y-158040520D01*
X130400520Y-157928716D01*
X130400520Y-157928714D01*
X130410728Y-157918507D01*
X130410729Y-157918504D01*
X139412417Y-148916818D01*
X139473740Y-148883333D01*
X139500098Y-148880499D01*
X140947871Y-148880499D01*
X140947872Y-148880499D01*
X141007483Y-148874091D01*
X141142331Y-148823796D01*
X141257546Y-148737546D01*
X141343796Y-148622331D01*
X141371429Y-148548243D01*
X141373601Y-148542420D01*
X141415471Y-148486486D01*
X141480936Y-148462068D01*
X141549209Y-148476919D01*
X141577464Y-148498071D01*
X141627636Y-148548243D01*
X141627641Y-148548247D01*
X141729603Y-148622326D01*
X141805978Y-148677815D01*
X141934375Y-148743237D01*
X142002393Y-148777895D01*
X142002396Y-148777896D01*
X142107221Y-148811955D01*
X142212049Y-148846015D01*
X142429778Y-148880500D01*
X142429779Y-148880500D01*
X142650221Y-148880500D01*
X142650222Y-148880500D01*
X142867951Y-148846015D01*
X143077606Y-148777895D01*
X143274022Y-148677815D01*
X143452365Y-148548242D01*
X143608242Y-148392365D01*
X143737815Y-148214022D01*
X143837895Y-148017606D01*
X143906015Y-147807951D01*
X143940500Y-147590222D01*
X143940500Y-147369778D01*
X143906015Y-147152049D01*
X143863093Y-147019946D01*
X143837896Y-146942396D01*
X143837895Y-146942393D01*
X143763351Y-146796095D01*
X143737815Y-146745978D01*
X143664423Y-146644962D01*
X143608247Y-146567641D01*
X143608243Y-146567636D01*
X143452363Y-146411756D01*
X143452358Y-146411752D01*
X143274025Y-146282187D01*
X143274024Y-146282186D01*
X143274022Y-146282185D01*
X143156791Y-146222452D01*
X143077606Y-146182104D01*
X143077603Y-146182103D01*
X142867952Y-146113985D01*
X142725065Y-146091354D01*
X142650222Y-146079500D01*
X142429778Y-146079500D01*
X142357201Y-146090995D01*
X142212047Y-146113985D01*
X142002396Y-146182103D01*
X142002393Y-146182104D01*
X141805974Y-146282187D01*
X141627641Y-146411752D01*
X141627636Y-146411756D01*
X141577463Y-146461929D01*
X141516140Y-146495413D01*
X141446448Y-146490428D01*
X141390515Y-146448557D01*
X141373601Y-146417580D01*
X141343797Y-146337671D01*
X141343793Y-146337664D01*
X141257547Y-146222455D01*
X141257544Y-146222452D01*
X141142335Y-146136206D01*
X141142328Y-146136202D01*
X141007482Y-146085908D01*
X141007483Y-146085908D01*
X140947883Y-146079501D01*
X140947881Y-146079500D01*
X140947873Y-146079500D01*
X140947865Y-146079500D01*
X140724500Y-146079500D01*
X140657461Y-146059815D01*
X140611706Y-146007011D01*
X140600500Y-145955500D01*
X140600500Y-130654499D01*
X140620185Y-130587460D01*
X140672989Y-130541705D01*
X140724500Y-130530499D01*
X141017871Y-130530499D01*
X141017872Y-130530499D01*
X141077483Y-130524091D01*
X141212331Y-130473796D01*
X141327546Y-130387546D01*
X141413796Y-130272331D01*
X141413798Y-130272326D01*
X141443601Y-130192420D01*
X141485471Y-130136486D01*
X141550936Y-130112068D01*
X141619209Y-130126919D01*
X141647464Y-130148071D01*
X141697636Y-130198243D01*
X141697641Y-130198247D01*
X141837593Y-130299927D01*
X141875978Y-130327815D01*
X142004375Y-130393237D01*
X142072393Y-130427895D01*
X142072396Y-130427896D01*
X142177221Y-130461955D01*
X142282049Y-130496015D01*
X142499778Y-130530500D01*
X142499779Y-130530500D01*
X142720221Y-130530500D01*
X142720222Y-130530500D01*
X142937951Y-130496015D01*
X143147606Y-130427895D01*
X143344022Y-130327815D01*
X143522365Y-130198242D01*
X143678242Y-130042365D01*
X143807815Y-129864022D01*
X143907895Y-129667606D01*
X143976015Y-129457951D01*
X144010500Y-129240222D01*
X144010500Y-129019778D01*
X143976015Y-128802049D01*
X143917002Y-128620423D01*
X143907896Y-128592396D01*
X143907895Y-128592393D01*
X143873237Y-128524375D01*
X143807815Y-128395978D01*
X143730797Y-128289971D01*
X143678247Y-128217641D01*
X143678243Y-128217636D01*
X143522363Y-128061756D01*
X143522358Y-128061752D01*
X143344025Y-127932187D01*
X143344024Y-127932186D01*
X143344022Y-127932185D01*
X143240005Y-127879185D01*
X143147606Y-127832104D01*
X143147603Y-127832103D01*
X142937952Y-127763985D01*
X142829086Y-127746742D01*
X142720222Y-127729500D01*
X142499778Y-127729500D01*
X142474593Y-127733489D01*
X142282045Y-127763985D01*
X142211794Y-127786811D01*
X142141953Y-127788806D01*
X142085796Y-127756561D01*
X141897590Y-127568355D01*
X141897588Y-127568352D01*
X141778717Y-127449481D01*
X141778716Y-127449480D01*
X141691904Y-127399360D01*
X141691904Y-127399359D01*
X141691900Y-127399358D01*
X141641785Y-127370423D01*
X141489057Y-127329499D01*
X141330943Y-127329499D01*
X141323347Y-127329499D01*
X141323331Y-127329500D01*
X119070940Y-127329500D01*
X119030019Y-127340464D01*
X119030019Y-127340465D01*
X118992751Y-127350451D01*
X118918214Y-127370423D01*
X118918209Y-127370426D01*
X118781290Y-127449475D01*
X118781282Y-127449481D01*
X116719880Y-129510884D01*
X116658557Y-129544369D01*
X116588865Y-129539385D01*
X116532932Y-129497513D01*
X116508515Y-129432049D01*
X116508199Y-129423203D01*
X116508199Y-128484429D01*
X116508198Y-128484423D01*
X116501791Y-128424816D01*
X116451497Y-128289971D01*
X116451493Y-128289964D01*
X116365247Y-128174755D01*
X116365244Y-128174752D01*
X116250035Y-128088506D01*
X116250028Y-128088502D01*
X116115182Y-128038208D01*
X116115183Y-128038208D01*
X116055583Y-128031801D01*
X116055581Y-128031800D01*
X116055573Y-128031800D01*
X116055564Y-128031800D01*
X114664429Y-128031800D01*
X114664423Y-128031801D01*
X114604815Y-128038209D01*
X114517832Y-128070651D01*
X114448141Y-128075635D01*
X114386818Y-128042149D01*
X114353333Y-127980826D01*
X114350500Y-127954469D01*
X114350500Y-111529059D01*
X114350501Y-111529046D01*
X114350501Y-111360945D01*
X114350501Y-111360943D01*
X114309577Y-111208215D01*
X114235834Y-111080489D01*
X114230520Y-111071284D01*
X114118716Y-110959480D01*
X114118713Y-110959478D01*
X98309248Y-95150013D01*
X100950000Y-95150013D01*
X100950000Y-95500000D01*
X101934314Y-95500000D01*
X101929920Y-95504394D01*
X101877259Y-95595606D01*
X101850000Y-95697339D01*
X101850000Y-95802661D01*
X101877259Y-95904394D01*
X101929920Y-95995606D01*
X101934314Y-96000000D01*
X100950001Y-96000000D01*
X100950001Y-96349986D01*
X100960494Y-96452697D01*
X101015641Y-96619119D01*
X101015643Y-96619124D01*
X101107684Y-96768345D01*
X101231654Y-96892315D01*
X101380875Y-96984356D01*
X101380880Y-96984358D01*
X101547302Y-97039505D01*
X101547309Y-97039506D01*
X101650019Y-97049999D01*
X101999999Y-97049999D01*
X102000000Y-97049998D01*
X102000000Y-96065686D01*
X102004394Y-96070080D01*
X102095606Y-96122741D01*
X102197339Y-96150000D01*
X102302661Y-96150000D01*
X102404394Y-96122741D01*
X102495606Y-96070080D01*
X102500000Y-96065686D01*
X102500000Y-97049999D01*
X102849972Y-97049999D01*
X102849986Y-97049998D01*
X102952697Y-97039505D01*
X103119119Y-96984358D01*
X103119124Y-96984356D01*
X103268345Y-96892315D01*
X103337112Y-96823549D01*
X103398435Y-96790064D01*
X103468127Y-96795048D01*
X103497674Y-96810909D01*
X103568390Y-96862287D01*
X103627323Y-96892315D01*
X103750776Y-96955218D01*
X103750778Y-96955218D01*
X103750781Y-96955220D01*
X103840459Y-96984358D01*
X103945465Y-97018477D01*
X104046557Y-97034488D01*
X104147648Y-97050500D01*
X104147649Y-97050500D01*
X104352351Y-97050500D01*
X104352352Y-97050500D01*
X104554534Y-97018477D01*
X104749219Y-96955220D01*
X104931610Y-96862287D01*
X105031017Y-96790064D01*
X105097213Y-96741971D01*
X105097215Y-96741968D01*
X105097219Y-96741966D01*
X105241966Y-96597219D01*
X105241968Y-96597215D01*
X105241971Y-96597213D01*
X105294732Y-96524590D01*
X105362287Y-96431610D01*
X105455220Y-96249219D01*
X105518477Y-96054534D01*
X105550500Y-95852352D01*
X105550500Y-95647648D01*
X105540600Y-95585142D01*
X105518477Y-95445465D01*
X105455218Y-95250776D01*
X105390769Y-95124289D01*
X105362287Y-95068390D01*
X105346966Y-95047302D01*
X105241971Y-94902786D01*
X105097213Y-94758028D01*
X104931613Y-94637715D01*
X104931612Y-94637714D01*
X104931610Y-94637713D01*
X104872675Y-94607684D01*
X104749223Y-94544781D01*
X104554534Y-94481522D01*
X104379995Y-94453878D01*
X104352352Y-94449500D01*
X104147648Y-94449500D01*
X104123329Y-94453351D01*
X103945465Y-94481522D01*
X103750776Y-94544781D01*
X103568391Y-94637712D01*
X103568389Y-94637713D01*
X103497676Y-94689088D01*
X103431869Y-94712567D01*
X103363815Y-94696740D01*
X103337111Y-94676450D01*
X103268345Y-94607684D01*
X103119124Y-94515643D01*
X103119119Y-94515641D01*
X102952697Y-94460494D01*
X102952690Y-94460493D01*
X102849986Y-94450000D01*
X102500000Y-94450000D01*
X102500000Y-95434314D01*
X102495606Y-95429920D01*
X102404394Y-95377259D01*
X102302661Y-95350000D01*
X102197339Y-95350000D01*
X102095606Y-95377259D01*
X102004394Y-95429920D01*
X102000000Y-95434314D01*
X102000000Y-94450000D01*
X101650028Y-94450000D01*
X101650012Y-94450001D01*
X101547302Y-94460494D01*
X101380880Y-94515641D01*
X101380875Y-94515643D01*
X101231654Y-94607684D01*
X101107684Y-94731654D01*
X101015643Y-94880875D01*
X101015641Y-94880880D01*
X100960494Y-95047302D01*
X100960493Y-95047309D01*
X100950000Y-95150013D01*
X98309248Y-95150013D01*
X90932825Y-87773590D01*
X100594500Y-87773590D01*
X100594500Y-88726409D01*
X100600772Y-88806109D01*
X100648128Y-88982840D01*
X100650446Y-88991492D01*
X100737576Y-89162494D01*
X100750123Y-89177988D01*
X100858354Y-89311645D01*
X100932930Y-89372034D01*
X101007506Y-89432424D01*
X101178508Y-89519554D01*
X101363889Y-89569227D01*
X101443598Y-89575500D01*
X101443606Y-89575500D01*
X102396394Y-89575500D01*
X102396402Y-89575500D01*
X102476111Y-89569227D01*
X102661492Y-89519554D01*
X102832494Y-89432424D01*
X102981645Y-89311645D01*
X103102424Y-89162494D01*
X103168080Y-89033636D01*
X103216054Y-88982840D01*
X103283875Y-88966045D01*
X103350010Y-88988582D01*
X103378879Y-89017041D01*
X103448965Y-89113505D01*
X103596495Y-89261035D01*
X103765286Y-89383670D01*
X103853116Y-89428421D01*
X103951179Y-89478387D01*
X103951181Y-89478387D01*
X103951184Y-89478389D01*
X104041274Y-89507661D01*
X104149610Y-89542862D01*
X104355676Y-89575500D01*
X104355681Y-89575500D01*
X104564324Y-89575500D01*
X104770389Y-89542862D01*
X104842123Y-89519554D01*
X104968816Y-89478389D01*
X105154714Y-89383670D01*
X105323505Y-89261035D01*
X105471035Y-89113505D01*
X105593670Y-88944714D01*
X105619515Y-88893990D01*
X105667489Y-88843194D01*
X105735310Y-88826398D01*
X105801445Y-88848935D01*
X105840485Y-88893990D01*
X105866328Y-88944712D01*
X105918882Y-89017045D01*
X105988965Y-89113505D01*
X106136495Y-89261035D01*
X106206153Y-89311645D01*
X106305287Y-89383671D01*
X106320565Y-89391455D01*
X106331792Y-89397175D01*
X106382589Y-89445148D01*
X106399500Y-89507661D01*
X106399500Y-98199903D01*
X106379815Y-98266942D01*
X106363181Y-98287584D01*
X105485339Y-99165425D01*
X105424016Y-99198910D01*
X105421850Y-99199361D01*
X105266508Y-99230261D01*
X105266498Y-99230264D01*
X105120827Y-99290602D01*
X105120814Y-99290609D01*
X104989711Y-99378210D01*
X104989707Y-99378213D01*
X104878213Y-99489707D01*
X104878210Y-99489711D01*
X104790609Y-99620814D01*
X104790602Y-99620827D01*
X104730264Y-99766498D01*
X104730261Y-99766510D01*
X104699500Y-99921153D01*
X104699500Y-100078846D01*
X104730261Y-100233489D01*
X104730264Y-100233501D01*
X104790602Y-100379172D01*
X104790609Y-100379185D01*
X104878210Y-100510288D01*
X104878213Y-100510292D01*
X104989707Y-100621786D01*
X104989711Y-100621789D01*
X105120814Y-100709390D01*
X105120827Y-100709397D01*
X105266498Y-100769735D01*
X105266503Y-100769737D01*
X105408062Y-100797895D01*
X105421153Y-100800499D01*
X105421156Y-100800500D01*
X105421158Y-100800500D01*
X105578844Y-100800500D01*
X105578845Y-100800499D01*
X105733497Y-100769737D01*
X105879179Y-100709394D01*
X106010289Y-100621789D01*
X106121789Y-100510289D01*
X106209394Y-100379179D01*
X106269737Y-100233497D01*
X106296192Y-100100500D01*
X106300638Y-100078150D01*
X106333023Y-100016239D01*
X106334520Y-100014714D01*
X107358506Y-98990727D01*
X107358511Y-98990724D01*
X107368714Y-98980520D01*
X107368716Y-98980520D01*
X107480520Y-98868716D01*
X107559577Y-98731784D01*
X107598202Y-98587635D01*
X107600500Y-98579058D01*
X107600500Y-98420943D01*
X107600500Y-89507661D01*
X107620185Y-89440622D01*
X107668207Y-89397175D01*
X107694714Y-89383670D01*
X107863505Y-89261035D01*
X108011035Y-89113505D01*
X108133670Y-88944714D01*
X108228389Y-88758816D01*
X108292862Y-88560389D01*
X108306095Y-88476839D01*
X108325500Y-88354324D01*
X108325500Y-88145675D01*
X108292862Y-87939610D01*
X108259938Y-87838281D01*
X108228389Y-87741184D01*
X108228387Y-87741181D01*
X108228387Y-87741179D01*
X108133669Y-87555285D01*
X108011035Y-87386495D01*
X107863505Y-87238965D01*
X107694714Y-87116330D01*
X107680501Y-87109088D01*
X107508820Y-87021612D01*
X107310389Y-86957137D01*
X107104324Y-86924500D01*
X107104319Y-86924500D01*
X106895681Y-86924500D01*
X106895676Y-86924500D01*
X106689610Y-86957137D01*
X106491179Y-87021612D01*
X106305285Y-87116330D01*
X106136493Y-87238966D01*
X105988966Y-87386493D01*
X105866330Y-87555285D01*
X105840485Y-87606010D01*
X105792510Y-87656806D01*
X105724690Y-87673601D01*
X105658555Y-87651064D01*
X105619515Y-87606010D01*
X105593669Y-87555285D01*
X105471035Y-87386495D01*
X105323505Y-87238965D01*
X105154714Y-87116330D01*
X105140501Y-87109088D01*
X104968820Y-87021612D01*
X104770389Y-86957137D01*
X104564324Y-86924500D01*
X104564319Y-86924500D01*
X104355681Y-86924500D01*
X104355676Y-86924500D01*
X104149610Y-86957137D01*
X103951179Y-87021612D01*
X103765285Y-87116330D01*
X103596493Y-87238966D01*
X103448966Y-87386493D01*
X103378883Y-87482954D01*
X103323552Y-87525619D01*
X103253939Y-87531598D01*
X103192144Y-87498992D01*
X103168080Y-87466363D01*
X103102425Y-87337507D01*
X102981645Y-87188354D01*
X102885762Y-87110711D01*
X102832494Y-87067576D01*
X102661492Y-86980446D01*
X102661491Y-86980445D01*
X102661490Y-86980445D01*
X102476109Y-86930772D01*
X102396409Y-86924500D01*
X102396402Y-86924500D01*
X101443598Y-86924500D01*
X101443590Y-86924500D01*
X101363890Y-86930772D01*
X101178509Y-86980445D01*
X101007507Y-87067575D01*
X100858354Y-87188354D01*
X100737575Y-87337507D01*
X100650445Y-87508509D01*
X100600772Y-87693890D01*
X100594500Y-87773590D01*
X90932825Y-87773590D01*
X88733438Y-85574203D01*
X88699953Y-85512880D01*
X88703187Y-85448205D01*
X88726015Y-85377951D01*
X88760500Y-85160222D01*
X88760500Y-84939778D01*
X88726015Y-84722049D01*
X88726014Y-84722045D01*
X88690525Y-84612817D01*
X88688530Y-84542976D01*
X88724611Y-84483143D01*
X88787312Y-84452316D01*
X88808456Y-84450500D01*
X120285500Y-84450500D01*
X120352539Y-84470185D01*
X120398294Y-84522989D01*
X120409500Y-84574500D01*
X120409500Y-85997870D01*
X120409501Y-85997876D01*
X120415908Y-86057483D01*
X120466202Y-86192328D01*
X120466206Y-86192335D01*
X120552452Y-86307544D01*
X120552455Y-86307547D01*
X120667664Y-86393793D01*
X120667671Y-86393797D01*
X120802517Y-86444091D01*
X120802516Y-86444091D01*
X120809444Y-86444835D01*
X120862127Y-86450500D01*
X121649902Y-86450499D01*
X121716941Y-86470183D01*
X121737583Y-86486818D01*
X133938584Y-98687819D01*
X133972069Y-98749142D01*
X133967085Y-98818834D01*
X133925213Y-98874767D01*
X133859749Y-98899184D01*
X133850903Y-98899500D01*
X126396670Y-98899500D01*
X126396654Y-98899499D01*
X126389058Y-98899499D01*
X126230943Y-98899499D01*
X126154579Y-98919961D01*
X126078214Y-98940423D01*
X126078209Y-98940426D01*
X125941290Y-99019475D01*
X125941282Y-99019481D01*
X118674842Y-106285921D01*
X118613519Y-106319406D01*
X118548848Y-106316173D01*
X118534534Y-106311522D01*
X118359995Y-106283878D01*
X118332352Y-106279500D01*
X118127648Y-106279500D01*
X118103329Y-106283351D01*
X117925465Y-106311522D01*
X117730776Y-106374781D01*
X117548386Y-106467715D01*
X117382786Y-106588028D01*
X117238028Y-106732786D01*
X117117715Y-106898386D01*
X117024781Y-107080776D01*
X116961522Y-107275465D01*
X116929500Y-107477648D01*
X116929500Y-107682351D01*
X116961522Y-107884534D01*
X117024781Y-108079223D01*
X117085545Y-108198477D01*
X117117585Y-108261359D01*
X117117715Y-108261613D01*
X117238028Y-108427213D01*
X117382786Y-108571971D01*
X117503226Y-108659474D01*
X117548390Y-108692287D01*
X117664607Y-108751503D01*
X117730776Y-108785218D01*
X117730778Y-108785218D01*
X117730781Y-108785220D01*
X117835137Y-108819127D01*
X117925465Y-108848477D01*
X118026557Y-108864488D01*
X118127648Y-108880500D01*
X118127649Y-108880500D01*
X118332351Y-108880500D01*
X118332352Y-108880500D01*
X118534534Y-108848477D01*
X118729219Y-108785220D01*
X118911610Y-108692287D01*
X119004590Y-108624732D01*
X119077213Y-108571971D01*
X119077215Y-108571968D01*
X119077219Y-108571966D01*
X119221966Y-108427219D01*
X119221968Y-108427215D01*
X119221971Y-108427213D01*
X119274799Y-108354500D01*
X119342287Y-108261610D01*
X119435220Y-108079219D01*
X119498477Y-107884534D01*
X119530500Y-107682352D01*
X119530500Y-107477682D01*
X124550000Y-107477682D01*
X124550000Y-107682317D01*
X124582009Y-107884417D01*
X124645244Y-108079031D01*
X124738141Y-108261350D01*
X124738147Y-108261359D01*
X124770523Y-108305921D01*
X124770524Y-108305922D01*
X125450000Y-107626446D01*
X125450000Y-107632661D01*
X125477259Y-107734394D01*
X125529920Y-107825606D01*
X125604394Y-107900080D01*
X125695606Y-107952741D01*
X125797339Y-107980000D01*
X125803553Y-107980000D01*
X125124076Y-108659474D01*
X125168650Y-108691859D01*
X125350968Y-108784755D01*
X125545582Y-108847990D01*
X125747683Y-108880000D01*
X125952317Y-108880000D01*
X126154417Y-108847990D01*
X126349031Y-108784755D01*
X126531349Y-108691859D01*
X126575921Y-108659474D01*
X125896447Y-107980000D01*
X125902661Y-107980000D01*
X126004394Y-107952741D01*
X126095606Y-107900080D01*
X126170080Y-107825606D01*
X126222741Y-107734394D01*
X126250000Y-107632661D01*
X126250000Y-107626447D01*
X126929474Y-108305921D01*
X126961859Y-108261349D01*
X127054755Y-108079031D01*
X127117990Y-107884417D01*
X127150000Y-107682317D01*
X127150000Y-107477682D01*
X127117990Y-107275582D01*
X127054755Y-107080968D01*
X126961859Y-106898650D01*
X126929474Y-106854077D01*
X126929474Y-106854076D01*
X126250000Y-107533551D01*
X126250000Y-107527339D01*
X126222741Y-107425606D01*
X126170080Y-107334394D01*
X126095606Y-107259920D01*
X126004394Y-107207259D01*
X125902661Y-107180000D01*
X125896446Y-107180000D01*
X126575922Y-106500524D01*
X126575921Y-106500523D01*
X126531359Y-106468147D01*
X126531350Y-106468141D01*
X126349031Y-106375244D01*
X126154417Y-106312009D01*
X125952317Y-106280000D01*
X125747683Y-106280000D01*
X125545582Y-106312009D01*
X125350968Y-106375244D01*
X125168644Y-106468143D01*
X125124077Y-106500523D01*
X125124077Y-106500524D01*
X125803554Y-107180000D01*
X125797339Y-107180000D01*
X125695606Y-107207259D01*
X125604394Y-107259920D01*
X125529920Y-107334394D01*
X125477259Y-107425606D01*
X125450000Y-107527339D01*
X125450000Y-107533553D01*
X124770524Y-106854077D01*
X124770523Y-106854077D01*
X124738143Y-106898644D01*
X124645244Y-107080968D01*
X124582009Y-107275582D01*
X124550000Y-107477682D01*
X119530500Y-107477682D01*
X119530500Y-107477648D01*
X119498477Y-107275466D01*
X119493825Y-107261151D01*
X119491832Y-107191312D01*
X119524075Y-107135158D01*
X126522417Y-100136819D01*
X126583740Y-100103334D01*
X126610098Y-100100500D01*
X134075501Y-100100500D01*
X134142540Y-100120185D01*
X134188295Y-100172989D01*
X134199501Y-100224500D01*
X134199501Y-100447876D01*
X134205908Y-100507483D01*
X134256202Y-100642328D01*
X134256206Y-100642335D01*
X134342452Y-100757544D01*
X134342455Y-100757547D01*
X134457664Y-100843793D01*
X134457671Y-100843797D01*
X134592517Y-100894091D01*
X134592516Y-100894091D01*
X134599444Y-100894835D01*
X134652127Y-100900500D01*
X136547872Y-100900499D01*
X136607483Y-100894091D01*
X136742331Y-100843796D01*
X136857546Y-100757546D01*
X136943796Y-100642331D01*
X136971429Y-100568243D01*
X136973601Y-100562420D01*
X137015471Y-100506486D01*
X137080936Y-100482068D01*
X137149209Y-100496919D01*
X137177464Y-100518071D01*
X137227636Y-100568243D01*
X137227641Y-100568247D01*
X137329603Y-100642326D01*
X137405978Y-100697815D01*
X137534375Y-100763237D01*
X137602393Y-100797895D01*
X137602396Y-100797896D01*
X137707221Y-100831955D01*
X137812049Y-100866015D01*
X138029778Y-100900500D01*
X138029779Y-100900500D01*
X138250221Y-100900500D01*
X138250222Y-100900500D01*
X138467951Y-100866015D01*
X138677606Y-100797895D01*
X138874022Y-100697815D01*
X139052365Y-100568242D01*
X139208242Y-100412365D01*
X139337815Y-100234022D01*
X139437895Y-100037606D01*
X139506015Y-99827951D01*
X139540500Y-99610222D01*
X139540500Y-99389778D01*
X139506015Y-99172049D01*
X139471955Y-99067221D01*
X139437896Y-98962396D01*
X139437895Y-98962393D01*
X139393246Y-98874767D01*
X139337815Y-98765978D01*
X139312976Y-98731790D01*
X139208247Y-98587641D01*
X139208243Y-98587636D01*
X139052363Y-98431756D01*
X139052358Y-98431752D01*
X138874025Y-98302187D01*
X138874024Y-98302186D01*
X138874022Y-98302185D01*
X138811096Y-98270122D01*
X138677606Y-98202104D01*
X138677603Y-98202103D01*
X138467952Y-98133985D01*
X138359086Y-98116742D01*
X138250222Y-98099500D01*
X138029778Y-98099500D01*
X137957201Y-98110995D01*
X137812047Y-98133985D01*
X137602396Y-98202103D01*
X137602393Y-98202104D01*
X137405974Y-98302187D01*
X137227641Y-98431752D01*
X137227636Y-98431756D01*
X137177463Y-98481929D01*
X137116140Y-98515413D01*
X137046448Y-98510428D01*
X136990515Y-98468557D01*
X136973601Y-98437580D01*
X136943797Y-98357671D01*
X136943793Y-98357664D01*
X136857547Y-98242455D01*
X136857544Y-98242452D01*
X136742335Y-98156206D01*
X136742328Y-98156202D01*
X136607482Y-98105908D01*
X136607483Y-98105908D01*
X136547883Y-98099501D01*
X136547881Y-98099500D01*
X136547873Y-98099500D01*
X136547865Y-98099500D01*
X135100097Y-98099500D01*
X135033058Y-98079815D01*
X135012416Y-98063181D01*
X123206822Y-86257587D01*
X123173337Y-86196264D01*
X123178320Y-86126576D01*
X123183604Y-86112409D01*
X123225478Y-86056481D01*
X123290943Y-86032067D01*
X123359215Y-86046923D01*
X123387464Y-86068071D01*
X123437636Y-86118243D01*
X123437641Y-86118247D01*
X123549237Y-86199325D01*
X123615978Y-86247815D01*
X123744375Y-86313237D01*
X123812393Y-86347895D01*
X123812396Y-86347896D01*
X123879525Y-86369707D01*
X124022049Y-86416015D01*
X124239778Y-86450500D01*
X124239779Y-86450500D01*
X124460221Y-86450500D01*
X124460222Y-86450500D01*
X124677951Y-86416015D01*
X124887606Y-86347895D01*
X125084022Y-86247815D01*
X125262365Y-86118242D01*
X125418242Y-85962365D01*
X125547815Y-85784022D01*
X125647895Y-85587606D01*
X125716015Y-85377951D01*
X125750500Y-85160222D01*
X125750500Y-84939778D01*
X125716015Y-84722049D01*
X125655371Y-84535403D01*
X125647896Y-84512396D01*
X125647895Y-84512393D01*
X125559465Y-84338843D01*
X125547815Y-84315978D01*
X125489501Y-84235715D01*
X125418247Y-84137641D01*
X125418243Y-84137636D01*
X125262363Y-83981756D01*
X125262358Y-83981752D01*
X125084025Y-83852187D01*
X125084024Y-83852186D01*
X125084022Y-83852185D01*
X124966791Y-83792452D01*
X124887606Y-83752104D01*
X124887603Y-83752103D01*
X124677952Y-83683985D01*
X124569086Y-83666742D01*
X124460222Y-83649500D01*
X124239778Y-83649500D01*
X124167201Y-83660995D01*
X124022047Y-83683985D01*
X123812396Y-83752103D01*
X123812393Y-83752104D01*
X123615974Y-83852187D01*
X123437641Y-83981752D01*
X123437636Y-83981756D01*
X123387463Y-84031929D01*
X123326140Y-84065413D01*
X123256448Y-84060428D01*
X123200515Y-84018557D01*
X123183601Y-83987580D01*
X123153797Y-83907671D01*
X123153793Y-83907664D01*
X123067547Y-83792455D01*
X123067544Y-83792452D01*
X122952335Y-83706206D01*
X122952328Y-83706202D01*
X122817482Y-83655908D01*
X122817483Y-83655908D01*
X122757883Y-83649501D01*
X122757881Y-83649500D01*
X122757873Y-83649500D01*
X122757865Y-83649500D01*
X121310097Y-83649500D01*
X121243058Y-83629815D01*
X121222416Y-83613181D01*
X121097590Y-83488355D01*
X121097588Y-83488352D01*
X120978717Y-83369481D01*
X120978716Y-83369480D01*
X120891904Y-83319360D01*
X120891904Y-83319359D01*
X120891900Y-83319358D01*
X120841785Y-83290423D01*
X120689057Y-83249499D01*
X120530943Y-83249499D01*
X120523347Y-83249499D01*
X120523331Y-83249500D01*
X86099057Y-83249500D01*
X85940942Y-83249500D01*
X85788215Y-83290423D01*
X85788214Y-83290423D01*
X85788212Y-83290424D01*
X85788209Y-83290425D01*
X85738096Y-83319359D01*
X85738095Y-83319360D01*
X85694689Y-83344420D01*
X85651285Y-83369479D01*
X85651282Y-83369481D01*
X85594069Y-83426695D01*
X85539480Y-83481284D01*
X85539478Y-83481286D01*
X85407583Y-83613181D01*
X85407582Y-83613182D01*
X85346259Y-83646666D01*
X85319901Y-83649500D01*
X83872129Y-83649500D01*
X83872123Y-83649501D01*
X83812516Y-83655908D01*
X83677671Y-83706202D01*
X83677664Y-83706206D01*
X83562455Y-83792452D01*
X83562452Y-83792455D01*
X83476206Y-83907664D01*
X83476202Y-83907671D01*
X83425908Y-84042517D01*
X83419501Y-84102116D01*
X83419500Y-84102135D01*
X83419500Y-85997870D01*
X83419501Y-85997876D01*
X83425908Y-86057483D01*
X83476202Y-86192328D01*
X83476206Y-86192335D01*
X83562452Y-86307544D01*
X83562455Y-86307547D01*
X83677664Y-86393793D01*
X83677671Y-86393797D01*
X83722618Y-86410561D01*
X83812517Y-86444091D01*
X83872127Y-86450500D01*
X84095500Y-86450499D01*
X84162539Y-86470183D01*
X84208294Y-86522987D01*
X84219500Y-86574499D01*
X84219500Y-87539902D01*
X84199815Y-87606941D01*
X84183181Y-87627583D01*
X73747582Y-98063181D01*
X73686259Y-98096666D01*
X73659901Y-98099500D01*
X72212129Y-98099500D01*
X72212123Y-98099501D01*
X72152516Y-98105908D01*
X72017671Y-98156202D01*
X72017664Y-98156206D01*
X71902455Y-98242452D01*
X71902452Y-98242455D01*
X71816206Y-98357664D01*
X71816202Y-98357671D01*
X71765908Y-98492517D01*
X71759501Y-98552116D01*
X71759500Y-98552135D01*
X71759500Y-100447870D01*
X71759501Y-100447876D01*
X71765908Y-100507483D01*
X71816202Y-100642328D01*
X71816206Y-100642335D01*
X71902452Y-100757544D01*
X71902455Y-100757547D01*
X72017664Y-100843793D01*
X72017671Y-100843797D01*
X72056141Y-100858145D01*
X72152517Y-100894091D01*
X72212127Y-100900500D01*
X72435500Y-100900499D01*
X72502539Y-100920183D01*
X72548294Y-100972987D01*
X72559500Y-101024499D01*
X72559500Y-110679902D01*
X72539815Y-110746941D01*
X72523181Y-110767583D01*
X70047582Y-113243181D01*
X69986259Y-113276666D01*
X69959901Y-113279500D01*
X68512129Y-113279500D01*
X68512123Y-113279501D01*
X68452516Y-113285908D01*
X68317671Y-113336202D01*
X68317664Y-113336206D01*
X68202455Y-113422452D01*
X68202452Y-113422455D01*
X68116206Y-113537664D01*
X68116202Y-113537671D01*
X68065908Y-113672517D01*
X68059501Y-113732116D01*
X68059500Y-113732135D01*
X68059500Y-115627870D01*
X68059501Y-115627876D01*
X68065908Y-115687483D01*
X68116202Y-115822328D01*
X68116206Y-115822335D01*
X68202452Y-115937544D01*
X68202455Y-115937547D01*
X68317664Y-116023793D01*
X68317671Y-116023797D01*
X68362618Y-116040561D01*
X68452517Y-116074091D01*
X68512127Y-116080500D01*
X68735500Y-116080499D01*
X68802539Y-116100183D01*
X68848294Y-116152987D01*
X68859500Y-116204499D01*
X68859500Y-128775500D01*
X68839815Y-128842539D01*
X68787011Y-128888294D01*
X68735500Y-128899500D01*
X67802129Y-128899500D01*
X67802123Y-128899501D01*
X67742516Y-128905908D01*
X67607671Y-128956202D01*
X67607664Y-128956206D01*
X67492455Y-129042452D01*
X67492452Y-129042455D01*
X67406206Y-129157664D01*
X67406202Y-129157671D01*
X67355908Y-129292517D01*
X67349501Y-129352116D01*
X67349500Y-129352135D01*
X67349500Y-131247870D01*
X67349501Y-131247876D01*
X67355908Y-131307483D01*
X67406202Y-131442328D01*
X67406206Y-131442335D01*
X67492452Y-131557544D01*
X67492455Y-131557547D01*
X67607664Y-131643793D01*
X67607671Y-131643797D01*
X67652618Y-131660561D01*
X67742517Y-131694091D01*
X67802127Y-131700500D01*
X68025500Y-131700499D01*
X68092539Y-131720183D01*
X68138294Y-131772987D01*
X68149500Y-131824499D01*
X68149500Y-146995500D01*
X68129815Y-147062539D01*
X68077011Y-147108294D01*
X68025500Y-147119500D01*
X67472129Y-147119500D01*
X67472123Y-147119501D01*
X67412516Y-147125908D01*
X67277671Y-147176202D01*
X67277664Y-147176206D01*
X67162455Y-147262452D01*
X67162452Y-147262455D01*
X67076206Y-147377664D01*
X67076202Y-147377671D01*
X67025908Y-147512517D01*
X67019501Y-147572116D01*
X67019500Y-147572135D01*
X67019500Y-149467870D01*
X67019501Y-149467876D01*
X67025908Y-149527483D01*
X67076202Y-149662328D01*
X67076206Y-149662335D01*
X67162452Y-149777544D01*
X67162455Y-149777547D01*
X67277664Y-149863793D01*
X67277671Y-149863797D01*
X67412517Y-149914091D01*
X67412516Y-149914091D01*
X67419444Y-149914835D01*
X67472127Y-149920500D01*
X68919902Y-149920499D01*
X68986941Y-149940184D01*
X69007583Y-149956818D01*
X79315139Y-160264374D01*
X79315149Y-160264385D01*
X79319479Y-160268715D01*
X79319480Y-160268716D01*
X79431284Y-160380520D01*
X79431286Y-160380521D01*
X79431290Y-160380524D01*
X79568209Y-160459573D01*
X79568216Y-160459577D01*
X79672598Y-160487546D01*
X79720942Y-160500500D01*
X79720943Y-160500500D01*
X88051738Y-160500500D01*
X88118777Y-160520185D01*
X88164532Y-160572989D01*
X88174476Y-160642147D01*
X88145451Y-160705703D01*
X88089622Y-160742571D01*
X88081601Y-160745145D01*
X88071123Y-160748507D01*
X88063640Y-160750651D01*
X88018784Y-160761994D01*
X88018783Y-160761994D01*
X88015655Y-160763742D01*
X87993075Y-160773554D01*
X87781814Y-160841349D01*
X87770023Y-160845132D01*
X87754190Y-160846907D01*
X87707513Y-160865191D01*
X87703774Y-160866392D01*
X87703776Y-160866392D01*
X87659732Y-160880527D01*
X87659714Y-160880535D01*
X87656727Y-160882460D01*
X87634806Y-160893674D01*
X87428211Y-160974608D01*
X87428210Y-160974608D01*
X87416688Y-160979121D01*
X87400987Y-160981889D01*
X87355533Y-161003078D01*
X87351892Y-161004505D01*
X87351890Y-161004505D01*
X87308838Y-161021371D01*
X87308824Y-161021379D01*
X87305947Y-161023500D01*
X87284786Y-161036060D01*
X87083612Y-161129848D01*
X87083611Y-161129848D01*
X87072346Y-161135099D01*
X87057062Y-161138783D01*
X87012839Y-161162840D01*
X87009344Y-161164470D01*
X87009336Y-161164475D01*
X86967165Y-161184136D01*
X86967156Y-161184142D01*
X86964621Y-161186269D01*
X86944200Y-161200181D01*
X86659516Y-161355058D01*
X86648549Y-161361024D01*
X86633739Y-161365567D01*
X86590891Y-161392391D01*
X86587541Y-161394214D01*
X86587537Y-161394217D01*
X86546411Y-161416592D01*
X86544218Y-161418677D01*
X86524594Y-161433896D01*
X86250941Y-161605216D01*
X86250942Y-161605217D01*
X86240200Y-161611942D01*
X86226378Y-161617078D01*
X86184532Y-161646794D01*
X86181455Y-161648721D01*
X86181453Y-161648721D01*
X86141012Y-161674041D01*
X86141006Y-161674045D01*
X86139584Y-161675574D01*
X86120629Y-161692175D01*
X85846182Y-161887074D01*
X85846180Y-161887075D01*
X85835698Y-161894517D01*
X85822871Y-161900108D01*
X85782170Y-161932529D01*
X85779372Y-161934517D01*
X85779366Y-161934522D01*
X85739670Y-161962714D01*
X85739665Y-161962718D01*
X85738927Y-161963611D01*
X85720685Y-161981510D01*
X85460653Y-162188658D01*
X85450102Y-162197064D01*
X85439842Y-162202096D01*
X85398691Y-162238019D01*
X85396513Y-162239754D01*
X85396511Y-162239754D01*
X85355968Y-162272054D01*
X85350326Y-162277905D01*
X85350297Y-162277877D01*
X85339010Y-162290119D01*
X84973222Y-162609450D01*
X84962580Y-162618741D01*
X84954761Y-162622920D01*
X84913058Y-162661972D01*
X84911423Y-162663400D01*
X84869983Y-162699577D01*
X84864611Y-162705675D01*
X84864271Y-162705376D01*
X84854729Y-162716594D01*
X84504696Y-163044385D01*
X84493977Y-163054422D01*
X84488243Y-163057682D01*
X84445974Y-163099375D01*
X84444791Y-163100484D01*
X84402605Y-163139990D01*
X84397453Y-163146267D01*
X84396882Y-163145798D01*
X84388668Y-163155903D01*
X82976393Y-164549000D01*
X82976153Y-164549235D01*
X81444986Y-166051444D01*
X81442299Y-166054003D01*
X80937502Y-166520448D01*
X80934042Y-166523528D01*
X80415914Y-166967584D01*
X80411521Y-166971177D01*
X80001699Y-167291080D01*
X79996296Y-167295067D01*
X79572519Y-167590393D01*
X79566656Y-167594237D01*
X79141138Y-167856352D01*
X79134806Y-167860000D01*
X78692473Y-168097729D01*
X78687070Y-168100465D01*
X78334181Y-168268459D01*
X78329804Y-168270439D01*
X77971338Y-168424352D01*
X77965466Y-168426698D01*
X77666339Y-168537435D01*
X77658901Y-168539924D01*
X77356916Y-168630466D01*
X77349396Y-168632466D01*
X77038163Y-168704858D01*
X77030596Y-168706372D01*
X76869397Y-168733427D01*
X76716809Y-168759036D01*
X76708551Y-168760138D01*
X75894207Y-168841067D01*
X75885393Y-168841627D01*
X75339704Y-168856813D01*
X75331003Y-168856750D01*
X74785957Y-168833643D01*
X74777283Y-168832969D01*
X74235232Y-168771704D01*
X74226627Y-168770424D01*
X74070439Y-168741560D01*
X73688095Y-168670900D01*
X73680151Y-168669161D01*
X73118761Y-168526805D01*
X73111501Y-168524727D01*
X72558965Y-168348190D01*
X72551849Y-168345675D01*
X72011085Y-168135852D01*
X72004131Y-168132907D01*
X71475540Y-167889820D01*
X71469195Y-167886679D01*
X71019507Y-167647892D01*
X70889219Y-167578708D01*
X70883498Y-167575473D01*
X70527891Y-167361648D01*
X70320100Y-167236704D01*
X70314538Y-167233155D01*
X69769977Y-166864907D01*
X69764610Y-166861065D01*
X69237736Y-166462339D01*
X69233453Y-166458947D01*
X68639122Y-165966530D01*
X68635841Y-165963715D01*
X68634913Y-165962890D01*
X68057041Y-165449110D01*
X68053870Y-165446189D01*
X67493370Y-164911739D01*
X67490294Y-164908702D01*
X66947993Y-164354252D01*
X66945244Y-164351349D01*
X66527290Y-163895522D01*
X66524849Y-163892780D01*
X66335149Y-163673179D01*
X66121024Y-163425302D01*
X66118299Y-163422035D01*
X66098013Y-163396848D01*
X65541100Y-162705376D01*
X65214495Y-162299858D01*
X65211512Y-162296001D01*
X64357918Y-161146424D01*
X64355374Y-161142869D01*
X64013205Y-160646400D01*
X64011064Y-160643186D01*
X63681199Y-160131148D01*
X63680165Y-160129517D01*
X63254839Y-159446155D01*
X63236114Y-159380632D01*
X63236114Y-135653833D01*
X63241702Y-123169229D01*
X63241703Y-123168886D01*
X63241986Y-123081135D01*
X63263908Y-116269985D01*
X63263911Y-116269462D01*
X63266931Y-115877812D01*
X63298508Y-111782382D01*
X63298577Y-111779153D01*
X63320148Y-111161957D01*
X63320515Y-111155829D01*
X63372778Y-110542898D01*
X63373215Y-110538649D01*
X63478275Y-109667362D01*
X63478567Y-109665120D01*
X63601451Y-108791568D01*
X63601801Y-108789249D01*
X63741878Y-107918506D01*
X63742285Y-107916133D01*
X63758688Y-107825606D01*
X63899501Y-107048461D01*
X63899932Y-107046206D01*
X64074262Y-106181769D01*
X64074766Y-106179394D01*
X64107416Y-106032524D01*
X64266137Y-105318549D01*
X64266657Y-105316317D01*
X64475067Y-104459097D01*
X64475622Y-104456905D01*
X64700933Y-103603940D01*
X64701558Y-103601667D01*
X64938680Y-102773010D01*
X64939389Y-102770626D01*
X65193815Y-101947645D01*
X65194564Y-101945309D01*
X65466261Y-101128073D01*
X65467070Y-101125723D01*
X65755928Y-100314533D01*
X65756821Y-100312108D01*
X65786697Y-100233501D01*
X66062747Y-99507183D01*
X66063643Y-99504901D01*
X66386505Y-98706619D01*
X66387506Y-98704221D01*
X66441232Y-98579058D01*
X66727266Y-97912694D01*
X66728272Y-97910418D01*
X67084795Y-97126004D01*
X67085878Y-97123688D01*
X67121035Y-97050500D01*
X67456302Y-96352553D01*
X67457401Y-96350324D01*
X67844063Y-95587450D01*
X67845264Y-95585142D01*
X67890721Y-95500000D01*
X68247934Y-94830931D01*
X68249116Y-94828770D01*
X68667803Y-94083225D01*
X68669037Y-94081085D01*
X69103380Y-93344806D01*
X69104700Y-93342622D01*
X69554752Y-92615539D01*
X69556092Y-92613427D01*
X70021588Y-91895991D01*
X70022970Y-91893910D01*
X70503846Y-91186232D01*
X70505283Y-91184164D01*
X71005943Y-90479662D01*
X71007391Y-90477671D01*
X71522370Y-89783861D01*
X71523807Y-89781966D01*
X72052937Y-89099083D01*
X72054489Y-89097124D01*
X72597543Y-88425406D01*
X72599056Y-88423573D01*
X73155966Y-87763141D01*
X73157463Y-87761402D01*
X73727954Y-87112569D01*
X73729578Y-87110761D01*
X74313477Y-86473737D01*
X74315095Y-86472008D01*
X74911658Y-85847611D01*
X74913604Y-85845622D01*
X75743712Y-85016083D01*
X75745888Y-85013962D01*
X76596298Y-84206562D01*
X76598539Y-84204487D01*
X77469271Y-83419159D01*
X77471603Y-83417109D01*
X78361942Y-82654496D01*
X78364469Y-82652391D01*
X79237787Y-81944681D01*
X79240485Y-81942559D01*
X80133280Y-81260843D01*
X80136115Y-81258742D01*
X81048196Y-80603126D01*
X81051125Y-80601085D01*
X81207607Y-80495325D01*
X81981930Y-79971990D01*
X81984813Y-79970101D01*
X82931986Y-79369104D01*
X82934950Y-79367283D01*
X83898852Y-78794118D01*
X83901925Y-78792351D01*
X84881929Y-78247370D01*
X84885023Y-78245706D01*
X85881109Y-77728950D01*
X85884089Y-77727456D01*
X86934077Y-77218760D01*
X86936735Y-77217514D01*
X87999894Y-76735987D01*
X88002723Y-76734750D01*
X89077797Y-76280949D01*
X89080650Y-76279787D01*
X90165899Y-75854430D01*
X90169436Y-75853106D01*
X91568112Y-75354243D01*
X91572225Y-75352860D01*
X92985974Y-74905317D01*
X92990374Y-74904014D01*
X94379902Y-74520898D01*
X94384564Y-74519711D01*
X95787888Y-74191215D01*
X95792396Y-74190250D01*
X97284515Y-73900124D01*
X97288923Y-73899350D01*
X98792747Y-73663863D01*
X98796547Y-73663328D01*
X100508274Y-73449623D01*
X100511342Y-73449280D01*
X102226057Y-73279547D01*
X102230625Y-73279181D01*
X102784405Y-73245223D01*
X102790485Y-73245001D01*
X103346961Y-73238327D01*
X103350844Y-73238342D01*
G37*
%TD.AperFunction*%
%TA.AperFunction,Conductor*%
G36*
X86315788Y-86035298D02*
G01*
X86369209Y-86046919D01*
X86369210Y-86046920D01*
X86396678Y-86067291D01*
X86397016Y-86067623D01*
X86447635Y-86118242D01*
X86451138Y-86120787D01*
X86451141Y-86120790D01*
X86559237Y-86199325D01*
X86625978Y-86247815D01*
X86754375Y-86313237D01*
X86822393Y-86347895D01*
X86822396Y-86347896D01*
X86889525Y-86369707D01*
X87032049Y-86416015D01*
X87249778Y-86450500D01*
X87249779Y-86450500D01*
X87470221Y-86450500D01*
X87470222Y-86450500D01*
X87687951Y-86416015D01*
X87758205Y-86393187D01*
X87828044Y-86391192D01*
X87884203Y-86423438D01*
X113113181Y-111652416D01*
X113146666Y-111713739D01*
X113149500Y-111740097D01*
X113149500Y-131363581D01*
X113149499Y-131363599D01*
X113149499Y-131529305D01*
X113149498Y-131529305D01*
X113149499Y-131529308D01*
X113190423Y-131682036D01*
X113201082Y-131700498D01*
X113212051Y-131719495D01*
X113212052Y-131719499D01*
X113212053Y-131719499D01*
X113233969Y-131757460D01*
X113269479Y-131818965D01*
X113269481Y-131818968D01*
X113388349Y-131937836D01*
X113388355Y-131937841D01*
X114638333Y-133187819D01*
X114671818Y-133249142D01*
X114666834Y-133318834D01*
X114624962Y-133374767D01*
X114623539Y-133375817D01*
X114611998Y-133384201D01*
X114484196Y-133512003D01*
X114377974Y-133658208D01*
X114295923Y-133819241D01*
X114240072Y-133991132D01*
X114211800Y-134169635D01*
X114211800Y-134350364D01*
X114237199Y-134510730D01*
X114228244Y-134580024D01*
X114183248Y-134633476D01*
X114116496Y-134654115D01*
X114049183Y-134635390D01*
X114027045Y-134617809D01*
X112636819Y-133227583D01*
X112603334Y-133166260D01*
X112600500Y-133139902D01*
X112600500Y-114329765D01*
X112620185Y-114262726D01*
X112621398Y-114260874D01*
X112709390Y-114129185D01*
X112709390Y-114129184D01*
X112709394Y-114129179D01*
X112769737Y-113983497D01*
X112800500Y-113828842D01*
X112800500Y-113671158D01*
X112800500Y-113671155D01*
X112800499Y-113671153D01*
X112769737Y-113516503D01*
X112755522Y-113482185D01*
X112709397Y-113370827D01*
X112709390Y-113370814D01*
X112621789Y-113239711D01*
X112621786Y-113239707D01*
X112510292Y-113128213D01*
X112510288Y-113128210D01*
X112379185Y-113040609D01*
X112379172Y-113040602D01*
X112233501Y-112980264D01*
X112233489Y-112980261D01*
X112078845Y-112949500D01*
X112078842Y-112949500D01*
X111921158Y-112949500D01*
X111921155Y-112949500D01*
X111766510Y-112980261D01*
X111766498Y-112980264D01*
X111620827Y-113040602D01*
X111620814Y-113040609D01*
X111489711Y-113128210D01*
X111489707Y-113128213D01*
X111378213Y-113239707D01*
X111378210Y-113239711D01*
X111290609Y-113370814D01*
X111290602Y-113370827D01*
X111230264Y-113516498D01*
X111230261Y-113516510D01*
X111199500Y-113671153D01*
X111199500Y-113828846D01*
X111230261Y-113983489D01*
X111230264Y-113983501D01*
X111290602Y-114129172D01*
X111290609Y-114129185D01*
X111378602Y-114260874D01*
X111399480Y-114327551D01*
X111399500Y-114329765D01*
X111399500Y-133353330D01*
X111399499Y-133353348D01*
X111399499Y-133519054D01*
X111399498Y-133519054D01*
X111440423Y-133671785D01*
X111469358Y-133721900D01*
X111469359Y-133721904D01*
X111469360Y-133721904D01*
X111519479Y-133808714D01*
X111519481Y-133808717D01*
X111638349Y-133927585D01*
X111638355Y-133927590D01*
X114195645Y-136484881D01*
X114229130Y-136546204D01*
X114230438Y-136591959D01*
X114224968Y-136626495D01*
X114211800Y-136709635D01*
X114211800Y-136709640D01*
X114211800Y-136890364D01*
X114240053Y-137068750D01*
X114240073Y-137068871D01*
X114295922Y-137240756D01*
X114377840Y-137401529D01*
X114377974Y-137401791D01*
X114484196Y-137547996D01*
X114612003Y-137675803D01*
X114742260Y-137770438D01*
X114758212Y-137782028D01*
X114919244Y-137864078D01*
X115091129Y-137919927D01*
X115269635Y-137948200D01*
X115450365Y-137948200D01*
X115628871Y-137919927D01*
X115800756Y-137864078D01*
X115961788Y-137782028D01*
X116043879Y-137722385D01*
X116107996Y-137675803D01*
X116107998Y-137675800D01*
X116108002Y-137675798D01*
X116235798Y-137548002D01*
X116235800Y-137547998D01*
X116235803Y-137547996D01*
X116282385Y-137483879D01*
X116342028Y-137401788D01*
X116424078Y-137240756D01*
X116479927Y-137068871D01*
X116508200Y-136890365D01*
X116508200Y-136709635D01*
X116479927Y-136531129D01*
X116424078Y-136359244D01*
X116342028Y-136198212D01*
X116291905Y-136129223D01*
X116235803Y-136052003D01*
X116107996Y-135924196D01*
X115961791Y-135817974D01*
X115961790Y-135817973D01*
X115961788Y-135817972D01*
X115800756Y-135735922D01*
X115628871Y-135680073D01*
X115628869Y-135680072D01*
X115628867Y-135680072D01*
X115510436Y-135661314D01*
X115454612Y-135652472D01*
X115391478Y-135622544D01*
X115354547Y-135563232D01*
X115355545Y-135493370D01*
X115394155Y-135435137D01*
X115454612Y-135407527D01*
X115628871Y-135379927D01*
X115800756Y-135324078D01*
X115961788Y-135242028D01*
X116087029Y-135151036D01*
X116107996Y-135135803D01*
X116107998Y-135135800D01*
X116108002Y-135135798D01*
X116235798Y-135008002D01*
X116303306Y-134915083D01*
X116358635Y-134872419D01*
X116428248Y-134866440D01*
X116490044Y-134899045D01*
X116491305Y-134900289D01*
X121395481Y-139804465D01*
X121428966Y-139865788D01*
X121431800Y-139892146D01*
X121431800Y-145925630D01*
X121431799Y-145925648D01*
X121431799Y-146091354D01*
X121431798Y-146091354D01*
X121431799Y-146091357D01*
X121466927Y-146222455D01*
X121472724Y-146244087D01*
X121485045Y-146265427D01*
X121485046Y-146265429D01*
X121551777Y-146381012D01*
X121551781Y-146381017D01*
X121670649Y-146499885D01*
X121670655Y-146499890D01*
X121815645Y-146644880D01*
X121849130Y-146706203D01*
X121850438Y-146751958D01*
X121831800Y-146869635D01*
X121831800Y-147050365D01*
X121837351Y-147085411D01*
X121849767Y-147163802D01*
X121840813Y-147233095D01*
X121795816Y-147286547D01*
X121729065Y-147307187D01*
X121727294Y-147307200D01*
X116612201Y-147307200D01*
X116545162Y-147287515D01*
X116499407Y-147234711D01*
X116489463Y-147165553D01*
X116489728Y-147163802D01*
X116507700Y-147050331D01*
X116507700Y-146869668D01*
X116479440Y-146691249D01*
X116423613Y-146519433D01*
X116341602Y-146358477D01*
X116330439Y-146343112D01*
X116330438Y-146343112D01*
X115753700Y-146919851D01*
X115753700Y-146908168D01*
X115726870Y-146808038D01*
X115675038Y-146718263D01*
X115601737Y-146644962D01*
X115511962Y-146593130D01*
X115411832Y-146566300D01*
X115400147Y-146566300D01*
X115976886Y-145989559D01*
X115976886Y-145989558D01*
X115961529Y-145978401D01*
X115800566Y-145896386D01*
X115628750Y-145840559D01*
X115628752Y-145840559D01*
X115467012Y-145814941D01*
X115087749Y-145841696D01*
X114919433Y-145896386D01*
X114758476Y-145978397D01*
X114758472Y-145978400D01*
X114743112Y-145989558D01*
X114743112Y-145989559D01*
X115319854Y-146566300D01*
X115308168Y-146566300D01*
X115208038Y-146593130D01*
X115118263Y-146644962D01*
X115044962Y-146718263D01*
X114993130Y-146808038D01*
X114966300Y-146908168D01*
X114966300Y-146919853D01*
X114389559Y-146343112D01*
X114389558Y-146343112D01*
X114378400Y-146358472D01*
X114378397Y-146358476D01*
X114296386Y-146519433D01*
X114240559Y-146691249D01*
X114212300Y-146869668D01*
X114212300Y-147050331D01*
X114230272Y-147163802D01*
X114221317Y-147233096D01*
X114176321Y-147286548D01*
X114109570Y-147307187D01*
X114107799Y-147307200D01*
X110742797Y-147307200D01*
X110675758Y-147287515D01*
X110655116Y-147270881D01*
X107713870Y-144329635D01*
X114211800Y-144329635D01*
X114211800Y-144510364D01*
X114240072Y-144688867D01*
X114295923Y-144860758D01*
X114377974Y-145021791D01*
X114484196Y-145167996D01*
X114612003Y-145295803D01*
X114711683Y-145368223D01*
X114758212Y-145402028D01*
X114919244Y-145484078D01*
X115091129Y-145539927D01*
X115269635Y-145568200D01*
X115450365Y-145568200D01*
X115628871Y-145539927D01*
X115800756Y-145484078D01*
X115961788Y-145402028D01*
X116043879Y-145342385D01*
X116107996Y-145295803D01*
X116107998Y-145295800D01*
X116108002Y-145295798D01*
X116235798Y-145168002D01*
X116235800Y-145167998D01*
X116235803Y-145167996D01*
X116300407Y-145079075D01*
X116342028Y-145021788D01*
X116424078Y-144860756D01*
X116479927Y-144688871D01*
X116508200Y-144510365D01*
X116508200Y-144329635D01*
X116479927Y-144151129D01*
X116424078Y-143979244D01*
X116342028Y-143818212D01*
X116335202Y-143808817D01*
X116235803Y-143672003D01*
X116107996Y-143544196D01*
X115961791Y-143437974D01*
X115961790Y-143437973D01*
X115961788Y-143437972D01*
X115800756Y-143355922D01*
X115628871Y-143300073D01*
X115628869Y-143300072D01*
X115628867Y-143300072D01*
X115468552Y-143274680D01*
X115468549Y-143274680D01*
X115450365Y-143271800D01*
X115269635Y-143271800D01*
X115091129Y-143300073D01*
X115087593Y-143301222D01*
X114919241Y-143355923D01*
X114758208Y-143437974D01*
X114612003Y-143544196D01*
X114484196Y-143672003D01*
X114377974Y-143818208D01*
X114295923Y-143979241D01*
X114240072Y-144151132D01*
X114211800Y-144329635D01*
X107713870Y-144329635D01*
X106926818Y-143542583D01*
X106893333Y-143481260D01*
X106890499Y-143454902D01*
X106890499Y-142107129D01*
X106890498Y-142107123D01*
X106884091Y-142047516D01*
X106833797Y-141912671D01*
X106833793Y-141912664D01*
X106747547Y-141797455D01*
X106747544Y-141797452D01*
X106737102Y-141789635D01*
X114211800Y-141789635D01*
X114211800Y-141970364D01*
X114237199Y-142130730D01*
X114240073Y-142148871D01*
X114278231Y-142266310D01*
X114295923Y-142320758D01*
X114377974Y-142481791D01*
X114484196Y-142627996D01*
X114612003Y-142755803D01*
X114748817Y-142855202D01*
X114758212Y-142862028D01*
X114919244Y-142944078D01*
X115091129Y-142999927D01*
X115269635Y-143028200D01*
X115450365Y-143028200D01*
X115628871Y-142999927D01*
X115800756Y-142944078D01*
X115961788Y-142862028D01*
X116043879Y-142802385D01*
X116107996Y-142755803D01*
X116107998Y-142755800D01*
X116108002Y-142755798D01*
X116235798Y-142628002D01*
X116235800Y-142627998D01*
X116235803Y-142627996D01*
X116282385Y-142563879D01*
X116342028Y-142481788D01*
X116424078Y-142320756D01*
X116479927Y-142148871D01*
X116508200Y-141970365D01*
X116508200Y-141789635D01*
X116479927Y-141611129D01*
X116424078Y-141439244D01*
X116342028Y-141278212D01*
X116291905Y-141209223D01*
X116235803Y-141132003D01*
X116107996Y-141004196D01*
X115961791Y-140897974D01*
X115961790Y-140897973D01*
X115961788Y-140897972D01*
X115800756Y-140815922D01*
X115628871Y-140760073D01*
X115628869Y-140760072D01*
X115628867Y-140760072D01*
X115468552Y-140734680D01*
X115468549Y-140734680D01*
X115450365Y-140731800D01*
X115269635Y-140731800D01*
X115091129Y-140760073D01*
X115087593Y-140761222D01*
X114919241Y-140815923D01*
X114758208Y-140897974D01*
X114612003Y-141004196D01*
X114484196Y-141132003D01*
X114377974Y-141278208D01*
X114295923Y-141439241D01*
X114240072Y-141611132D01*
X114211800Y-141789635D01*
X106737102Y-141789635D01*
X106632335Y-141711206D01*
X106632328Y-141711202D01*
X106497482Y-141660908D01*
X106497483Y-141660908D01*
X106437883Y-141654501D01*
X106437881Y-141654500D01*
X106437873Y-141654500D01*
X106437864Y-141654500D01*
X104642129Y-141654500D01*
X104642123Y-141654501D01*
X104582516Y-141660908D01*
X104447671Y-141711202D01*
X104447664Y-141711206D01*
X104332453Y-141797454D01*
X104327248Y-141802659D01*
X104265924Y-141836141D01*
X104196232Y-141831154D01*
X104151890Y-141802655D01*
X101598870Y-139249635D01*
X114211800Y-139249635D01*
X114211800Y-139430364D01*
X114238305Y-139597713D01*
X114240073Y-139608871D01*
X114295922Y-139780756D01*
X114337718Y-139862786D01*
X114377974Y-139941791D01*
X114484196Y-140087996D01*
X114612003Y-140215803D01*
X114748817Y-140315202D01*
X114758212Y-140322028D01*
X114919244Y-140404078D01*
X115091129Y-140459927D01*
X115269635Y-140488200D01*
X115450365Y-140488200D01*
X115628871Y-140459927D01*
X115800756Y-140404078D01*
X115961788Y-140322028D01*
X116043879Y-140262385D01*
X116107996Y-140215803D01*
X116107998Y-140215800D01*
X116108002Y-140215798D01*
X116235798Y-140088002D01*
X116235800Y-140087998D01*
X116235803Y-140087996D01*
X116329234Y-139959397D01*
X116342028Y-139941788D01*
X116424078Y-139780756D01*
X116479927Y-139608871D01*
X116508200Y-139430365D01*
X116508200Y-139249635D01*
X116479927Y-139071129D01*
X116424078Y-138899244D01*
X116342028Y-138738212D01*
X116332274Y-138724786D01*
X116235803Y-138592003D01*
X116107996Y-138464196D01*
X115961791Y-138357974D01*
X115961790Y-138357973D01*
X115961788Y-138357972D01*
X115800756Y-138275922D01*
X115628871Y-138220073D01*
X115628869Y-138220072D01*
X115628867Y-138220072D01*
X115468552Y-138194680D01*
X115468549Y-138194680D01*
X115450365Y-138191800D01*
X115269635Y-138191800D01*
X115091129Y-138220073D01*
X115087593Y-138221222D01*
X114919241Y-138275923D01*
X114758208Y-138357974D01*
X114612003Y-138464196D01*
X114484196Y-138592003D01*
X114377974Y-138738208D01*
X114295923Y-138899241D01*
X114240072Y-139071132D01*
X114211800Y-139249635D01*
X101598870Y-139249635D01*
X101584574Y-139235339D01*
X101551089Y-139174016D01*
X101550638Y-139171849D01*
X101519738Y-139016510D01*
X101519737Y-139016503D01*
X101517163Y-139010288D01*
X101459397Y-138870827D01*
X101459390Y-138870814D01*
X101371789Y-138739711D01*
X101371786Y-138739707D01*
X101260292Y-138628213D01*
X101260288Y-138628210D01*
X101129185Y-138540609D01*
X101129172Y-138540602D01*
X100983501Y-138480264D01*
X100983489Y-138480261D01*
X100828845Y-138449500D01*
X100828842Y-138449500D01*
X100671158Y-138449500D01*
X100671155Y-138449500D01*
X100516510Y-138480261D01*
X100516498Y-138480264D01*
X100370827Y-138540602D01*
X100370814Y-138540609D01*
X100239711Y-138628210D01*
X100239707Y-138628213D01*
X100128213Y-138739707D01*
X100128210Y-138739711D01*
X100040609Y-138870814D01*
X100040602Y-138870827D01*
X99980264Y-139016498D01*
X99980261Y-139016510D01*
X99949500Y-139171153D01*
X99949500Y-139328846D01*
X99980261Y-139483489D01*
X99980264Y-139483501D01*
X100040602Y-139629172D01*
X100040609Y-139629185D01*
X100128210Y-139760288D01*
X100128213Y-139760292D01*
X100239707Y-139871786D01*
X100239711Y-139871789D01*
X100370814Y-139959390D01*
X100370827Y-139959397D01*
X100516498Y-140019735D01*
X100516503Y-140019737D01*
X100581147Y-140032595D01*
X100671849Y-140050638D01*
X100733760Y-140083023D01*
X100735339Y-140084574D01*
X104024478Y-143373713D01*
X104024480Y-143373716D01*
X104136284Y-143485520D01*
X104141923Y-143488775D01*
X104152314Y-143498964D01*
X104165839Y-143523164D01*
X104182190Y-143545558D01*
X104183927Y-143555529D01*
X104186401Y-143559955D01*
X104185956Y-143567169D01*
X104189500Y-143587504D01*
X104189500Y-143902869D01*
X104189501Y-143902876D01*
X104195908Y-143962483D01*
X104246202Y-144097328D01*
X104246206Y-144097335D01*
X104332452Y-144212544D01*
X104332455Y-144212547D01*
X104447664Y-144298793D01*
X104447671Y-144298797D01*
X104492618Y-144315561D01*
X104582517Y-144349091D01*
X104642127Y-144355500D01*
X104652685Y-144355499D01*
X104719723Y-144375179D01*
X104740372Y-144391818D01*
X105410591Y-145062037D01*
X105347007Y-145079075D01*
X105232993Y-145144901D01*
X105139901Y-145237993D01*
X105074075Y-145352007D01*
X105057037Y-145415591D01*
X104424728Y-144783282D01*
X104424727Y-144783282D01*
X104385380Y-144837439D01*
X104288904Y-145026782D01*
X104223242Y-145228869D01*
X104223242Y-145228872D01*
X104190000Y-145438753D01*
X104190000Y-145651246D01*
X104223242Y-145861127D01*
X104223242Y-145861130D01*
X104288904Y-146063217D01*
X104385375Y-146252550D01*
X104424728Y-146306716D01*
X105057037Y-145674408D01*
X105074075Y-145737993D01*
X105139901Y-145852007D01*
X105232993Y-145945099D01*
X105347007Y-146010925D01*
X105410590Y-146027962D01*
X104778282Y-146660269D01*
X104778282Y-146660270D01*
X104832449Y-146699624D01*
X105021782Y-146796095D01*
X105223870Y-146861757D01*
X105433754Y-146895000D01*
X105646246Y-146895000D01*
X105856127Y-146861757D01*
X105856130Y-146861757D01*
X106058217Y-146796095D01*
X106247554Y-146699622D01*
X106301716Y-146660270D01*
X106301717Y-146660270D01*
X105669408Y-146027962D01*
X105732993Y-146010925D01*
X105847007Y-145945099D01*
X105940099Y-145852007D01*
X106005925Y-145737993D01*
X106022962Y-145674408D01*
X106655270Y-146306717D01*
X106655270Y-146306716D01*
X106694622Y-146252554D01*
X106791095Y-146063217D01*
X106856757Y-145861130D01*
X106856757Y-145861127D01*
X106890000Y-145651246D01*
X106890000Y-145503597D01*
X106909685Y-145436558D01*
X106962489Y-145390803D01*
X107031647Y-145380859D01*
X107095203Y-145409884D01*
X107101681Y-145415916D01*
X109957839Y-148272074D01*
X109957849Y-148272085D01*
X109962179Y-148276415D01*
X109962180Y-148276416D01*
X110073984Y-148388220D01*
X110132121Y-148421785D01*
X110210915Y-148467277D01*
X110363643Y-148508201D01*
X110363646Y-148508201D01*
X110529353Y-148508201D01*
X110529369Y-148508200D01*
X123285882Y-148508200D01*
X123285898Y-148508201D01*
X123293494Y-148508201D01*
X123451605Y-148508201D01*
X123451608Y-148508201D01*
X123604336Y-148467277D01*
X123683130Y-148421785D01*
X123741267Y-148388220D01*
X123853071Y-148276416D01*
X123853071Y-148276414D01*
X123863275Y-148266211D01*
X123863279Y-148266206D01*
X130708506Y-141420979D01*
X130708511Y-141420975D01*
X130718714Y-141410771D01*
X130718716Y-141410771D01*
X130830520Y-141298967D01*
X130896071Y-141185429D01*
X130909577Y-141162036D01*
X130950501Y-141009308D01*
X130950501Y-140851194D01*
X130950501Y-140843599D01*
X130950500Y-140843581D01*
X130950500Y-131172416D01*
X130950500Y-131172414D01*
X130909577Y-131019687D01*
X130882044Y-130971998D01*
X130830524Y-130882761D01*
X130830521Y-130882757D01*
X130830520Y-130882755D01*
X130718716Y-130770951D01*
X130718715Y-130770950D01*
X130714385Y-130766620D01*
X130714374Y-130766610D01*
X128766119Y-128818355D01*
X128759050Y-128811286D01*
X128759049Y-128811284D01*
X128689943Y-128742178D01*
X128664889Y-128696292D01*
X128656461Y-128680858D01*
X128661445Y-128611166D01*
X128685391Y-128579178D01*
X128703317Y-128555232D01*
X128750997Y-128537448D01*
X128768781Y-128530816D01*
X128777627Y-128530500D01*
X138545500Y-128530500D01*
X138612539Y-128550185D01*
X138658294Y-128602989D01*
X138669500Y-128654500D01*
X138669500Y-130077870D01*
X138669501Y-130077876D01*
X138675908Y-130137483D01*
X138726202Y-130272328D01*
X138726206Y-130272335D01*
X138812452Y-130387544D01*
X138812455Y-130387547D01*
X138927664Y-130473793D01*
X138927671Y-130473797D01*
X138972618Y-130490561D01*
X139062517Y-130524091D01*
X139122127Y-130530500D01*
X139275500Y-130530499D01*
X139342539Y-130550183D01*
X139388294Y-130602987D01*
X139399500Y-130654499D01*
X139399500Y-145955500D01*
X139379815Y-146022539D01*
X139327011Y-146068294D01*
X139275501Y-146079500D01*
X139052130Y-146079500D01*
X139052123Y-146079501D01*
X138992516Y-146085908D01*
X138857671Y-146136202D01*
X138857664Y-146136206D01*
X138742455Y-146222452D01*
X138742452Y-146222455D01*
X138656206Y-146337664D01*
X138656202Y-146337671D01*
X138605908Y-146472517D01*
X138599501Y-146532116D01*
X138599500Y-146532135D01*
X138599500Y-147979901D01*
X138579815Y-148046940D01*
X138563181Y-148067582D01*
X129707584Y-156923181D01*
X129646261Y-156956666D01*
X129619903Y-156959500D01*
X106336670Y-156959500D01*
X106336654Y-156959499D01*
X106329058Y-156959499D01*
X106170943Y-156959499D01*
X106094579Y-156979961D01*
X106018214Y-157000423D01*
X106018209Y-157000426D01*
X105881290Y-157079475D01*
X105881282Y-157079481D01*
X104497582Y-158463181D01*
X104436259Y-158496666D01*
X104409901Y-158499500D01*
X102962129Y-158499500D01*
X102962123Y-158499501D01*
X102902516Y-158505908D01*
X102767671Y-158556202D01*
X102767664Y-158556206D01*
X102652455Y-158642452D01*
X102652452Y-158642455D01*
X102566206Y-158757664D01*
X102566202Y-158757671D01*
X102515908Y-158892517D01*
X102509501Y-158952116D01*
X102509500Y-158952135D01*
X102509500Y-159175500D01*
X102489815Y-159242539D01*
X102437011Y-159288294D01*
X102385500Y-159299500D01*
X80100097Y-159299500D01*
X80033058Y-159279815D01*
X80012416Y-159263181D01*
X70881416Y-150132181D01*
X70847931Y-150070858D01*
X70852915Y-150001166D01*
X70894787Y-149945233D01*
X70960251Y-149920816D01*
X70969097Y-149920500D01*
X71070221Y-149920500D01*
X71070222Y-149920500D01*
X71287951Y-149886015D01*
X71497606Y-149817895D01*
X71694022Y-149717815D01*
X71872365Y-149588242D01*
X72028242Y-149432365D01*
X72157815Y-149254022D01*
X72257895Y-149057606D01*
X72326015Y-148847951D01*
X72360500Y-148630222D01*
X72360500Y-148409778D01*
X72326015Y-148192049D01*
X72257895Y-147982394D01*
X72257895Y-147982393D01*
X72169011Y-147807952D01*
X72157815Y-147785978D01*
X72099501Y-147705715D01*
X72028247Y-147607641D01*
X72028243Y-147607636D01*
X71872363Y-147451756D01*
X71872358Y-147451752D01*
X71694025Y-147322187D01*
X71694024Y-147322186D01*
X71694022Y-147322185D01*
X71601492Y-147275038D01*
X71497606Y-147222104D01*
X71497603Y-147222103D01*
X71287952Y-147153985D01*
X71119355Y-147127282D01*
X71070222Y-147119500D01*
X70849778Y-147119500D01*
X70800645Y-147127282D01*
X70632047Y-147153985D01*
X70422396Y-147222103D01*
X70422393Y-147222104D01*
X70225974Y-147322187D01*
X70047641Y-147451752D01*
X70047636Y-147451756D01*
X69997463Y-147501929D01*
X69936140Y-147535413D01*
X69866448Y-147530428D01*
X69810515Y-147488557D01*
X69793601Y-147457580D01*
X69763797Y-147377671D01*
X69763793Y-147377664D01*
X69677547Y-147262455D01*
X69677544Y-147262452D01*
X69562335Y-147176206D01*
X69562328Y-147176202D01*
X69431167Y-147127282D01*
X69375233Y-147085411D01*
X69350816Y-147019946D01*
X69350500Y-147011100D01*
X69350500Y-131824499D01*
X69370185Y-131757460D01*
X69422989Y-131711705D01*
X69474500Y-131700499D01*
X69697871Y-131700499D01*
X69697872Y-131700499D01*
X69757483Y-131694091D01*
X69892331Y-131643796D01*
X70007546Y-131557546D01*
X70093796Y-131442331D01*
X70107764Y-131404880D01*
X70123601Y-131362420D01*
X70165471Y-131306486D01*
X70230936Y-131282068D01*
X70299209Y-131296919D01*
X70327464Y-131318071D01*
X70377636Y-131368243D01*
X70377641Y-131368247D01*
X70479603Y-131442326D01*
X70555978Y-131497815D01*
X70684375Y-131563237D01*
X70752393Y-131597895D01*
X70752396Y-131597896D01*
X70850081Y-131629635D01*
X70962049Y-131666015D01*
X71179778Y-131700500D01*
X71179779Y-131700500D01*
X71400221Y-131700500D01*
X71400222Y-131700500D01*
X71617951Y-131666015D01*
X71827606Y-131597895D01*
X72024022Y-131497815D01*
X72202365Y-131368242D01*
X72358242Y-131212365D01*
X72487815Y-131034022D01*
X72587895Y-130837606D01*
X72656015Y-130627951D01*
X72690500Y-130410222D01*
X72690500Y-130189778D01*
X72656015Y-129972049D01*
X72610386Y-129831615D01*
X72587896Y-129762396D01*
X72587895Y-129762393D01*
X72546961Y-129682058D01*
X72487815Y-129565978D01*
X72409330Y-129457952D01*
X72358247Y-129387641D01*
X72358243Y-129387636D01*
X72202363Y-129231756D01*
X72202358Y-129231752D01*
X72024025Y-129102187D01*
X72024024Y-129102186D01*
X72024022Y-129102185D01*
X71906791Y-129042452D01*
X71827606Y-129002104D01*
X71827603Y-129002103D01*
X71617952Y-128933985D01*
X71473644Y-128911129D01*
X71400222Y-128899500D01*
X71179778Y-128899500D01*
X71107201Y-128910995D01*
X70962047Y-128933985D01*
X70752396Y-129002103D01*
X70752393Y-129002104D01*
X70555974Y-129102187D01*
X70377641Y-129231752D01*
X70377636Y-129231756D01*
X70327463Y-129281929D01*
X70266140Y-129315413D01*
X70196448Y-129310428D01*
X70140515Y-129268557D01*
X70126786Y-129245313D01*
X70125063Y-129241501D01*
X70093796Y-129157669D01*
X70077095Y-129135359D01*
X70071503Y-129122985D01*
X70068471Y-129101288D01*
X70060816Y-129080765D01*
X70060500Y-129071919D01*
X70060500Y-116204499D01*
X70080185Y-116137460D01*
X70132989Y-116091705D01*
X70184500Y-116080499D01*
X70407871Y-116080499D01*
X70407872Y-116080499D01*
X70467483Y-116074091D01*
X70602331Y-116023796D01*
X70717546Y-115937546D01*
X70803796Y-115822331D01*
X70831429Y-115748243D01*
X70833601Y-115742420D01*
X70875471Y-115686486D01*
X70940936Y-115662068D01*
X71009209Y-115676919D01*
X71037464Y-115698071D01*
X71087636Y-115748243D01*
X71087641Y-115748247D01*
X71189603Y-115822326D01*
X71265978Y-115877815D01*
X71394375Y-115943237D01*
X71462393Y-115977895D01*
X71462396Y-115977896D01*
X71567221Y-116011955D01*
X71672049Y-116046015D01*
X71889778Y-116080500D01*
X71889779Y-116080500D01*
X72110221Y-116080500D01*
X72110222Y-116080500D01*
X72327951Y-116046015D01*
X72537606Y-115977895D01*
X72734022Y-115877815D01*
X72912365Y-115748242D01*
X73068242Y-115592365D01*
X73197815Y-115414022D01*
X73297895Y-115217606D01*
X73366015Y-115007951D01*
X73400500Y-114790222D01*
X73400500Y-114569778D01*
X73366015Y-114352049D01*
X73297895Y-114142394D01*
X73297895Y-114142393D01*
X73263237Y-114074375D01*
X73197815Y-113945978D01*
X73181260Y-113923192D01*
X73068247Y-113767641D01*
X73068243Y-113767636D01*
X72912363Y-113611756D01*
X72912358Y-113611752D01*
X72734025Y-113482187D01*
X72734024Y-113482186D01*
X72734022Y-113482185D01*
X72616791Y-113422452D01*
X72537606Y-113382104D01*
X72537603Y-113382103D01*
X72327952Y-113313985D01*
X72219086Y-113296742D01*
X72110222Y-113279500D01*
X72009096Y-113279500D01*
X71942057Y-113259815D01*
X71896302Y-113207011D01*
X71886358Y-113137853D01*
X71915383Y-113074297D01*
X71921415Y-113067819D01*
X72039734Y-112949500D01*
X73528713Y-111460521D01*
X73528716Y-111460520D01*
X73640520Y-111348716D01*
X73690639Y-111261904D01*
X73719577Y-111211785D01*
X73760500Y-111059057D01*
X73760500Y-110900943D01*
X73760500Y-106827648D01*
X83089500Y-106827648D01*
X83089500Y-107032352D01*
X83092064Y-107048538D01*
X83121522Y-107234534D01*
X83184781Y-107429223D01*
X83248691Y-107554653D01*
X83277374Y-107610945D01*
X83277715Y-107611613D01*
X83398028Y-107777213D01*
X83398034Y-107777219D01*
X83542781Y-107921966D01*
X83708390Y-108042287D01*
X83721793Y-108049116D01*
X83772589Y-108097088D01*
X83789500Y-108159601D01*
X83789500Y-121803330D01*
X83789499Y-121803348D01*
X83789499Y-121969054D01*
X83789498Y-121969054D01*
X83830423Y-122121785D01*
X83859358Y-122171900D01*
X83859359Y-122171904D01*
X83859360Y-122171904D01*
X83909479Y-122258714D01*
X83909481Y-122258717D01*
X84028349Y-122377585D01*
X84028355Y-122377590D01*
X88421662Y-126770897D01*
X88455147Y-126832220D01*
X88450163Y-126901912D01*
X88421662Y-126946259D01*
X88378213Y-126989707D01*
X88378210Y-126989711D01*
X88290609Y-127120814D01*
X88290602Y-127120827D01*
X88230264Y-127266498D01*
X88230261Y-127266510D01*
X88199500Y-127421153D01*
X88199500Y-127578846D01*
X88230261Y-127733489D01*
X88230264Y-127733501D01*
X88290602Y-127879172D01*
X88290609Y-127879185D01*
X88378602Y-128010874D01*
X88399480Y-128077551D01*
X88399500Y-128079765D01*
X88399500Y-132019902D01*
X88379815Y-132086941D01*
X88363181Y-132107583D01*
X87148062Y-133322700D01*
X87086739Y-133356185D01*
X87017047Y-133351201D01*
X86999619Y-133340000D01*
X86005686Y-133340000D01*
X86010080Y-133335606D01*
X86062741Y-133244394D01*
X86090000Y-133142661D01*
X86090000Y-133037339D01*
X86062741Y-132935606D01*
X86010080Y-132844394D01*
X86005686Y-132840000D01*
X86989999Y-132840000D01*
X86989999Y-132490028D01*
X86989998Y-132490013D01*
X86979505Y-132387302D01*
X86924358Y-132220880D01*
X86924356Y-132220875D01*
X86832315Y-132071654D01*
X86708345Y-131947684D01*
X86559124Y-131855643D01*
X86559119Y-131855641D01*
X86392697Y-131800494D01*
X86392690Y-131800493D01*
X86289986Y-131790000D01*
X85940000Y-131790000D01*
X85940000Y-132774314D01*
X85935606Y-132769920D01*
X85844394Y-132717259D01*
X85742661Y-132690000D01*
X85637339Y-132690000D01*
X85535606Y-132717259D01*
X85444394Y-132769920D01*
X85440000Y-132774314D01*
X85440000Y-131790000D01*
X85090028Y-131790000D01*
X85090012Y-131790001D01*
X84987302Y-131800494D01*
X84820880Y-131855641D01*
X84820875Y-131855643D01*
X84671654Y-131947684D01*
X84547684Y-132071654D01*
X84455643Y-132220875D01*
X84455641Y-132220880D01*
X84400494Y-132387302D01*
X84400493Y-132387309D01*
X84390000Y-132490013D01*
X84390000Y-132840000D01*
X85374314Y-132840000D01*
X85369920Y-132844394D01*
X85317259Y-132935606D01*
X85290000Y-133037339D01*
X85290000Y-133142661D01*
X85317259Y-133244394D01*
X85369920Y-133335606D01*
X85374314Y-133340000D01*
X84390001Y-133340000D01*
X84390001Y-133689986D01*
X84400494Y-133792697D01*
X84455641Y-133959119D01*
X84455643Y-133959124D01*
X84547684Y-134108345D01*
X84671654Y-134232315D01*
X84820875Y-134324356D01*
X84820882Y-134324359D01*
X84903067Y-134351592D01*
X84960512Y-134391364D01*
X84987336Y-134455880D01*
X84975021Y-134524656D01*
X84936949Y-134569616D01*
X84842787Y-134638028D01*
X84842782Y-134638032D01*
X84698028Y-134782786D01*
X84577715Y-134948386D01*
X84484781Y-135130776D01*
X84421522Y-135325465D01*
X84394929Y-135493370D01*
X84389500Y-135527648D01*
X84389500Y-135732352D01*
X84390066Y-135735923D01*
X84421522Y-135934534D01*
X84484781Y-136129223D01*
X84577715Y-136311613D01*
X84698028Y-136477213D01*
X84842786Y-136621971D01*
X84997749Y-136734556D01*
X85008390Y-136742287D01*
X85099840Y-136788883D01*
X85101080Y-136789515D01*
X85151876Y-136837490D01*
X85168671Y-136905311D01*
X85146134Y-136971446D01*
X85101080Y-137010485D01*
X85008386Y-137057715D01*
X84842786Y-137178028D01*
X84698028Y-137322786D01*
X84577715Y-137488386D01*
X84484781Y-137670776D01*
X84421522Y-137865465D01*
X84401844Y-137989711D01*
X84389500Y-138067648D01*
X84389500Y-138272352D01*
X84390066Y-138275923D01*
X84421522Y-138474534D01*
X84484781Y-138669223D01*
X84577715Y-138851613D01*
X84698028Y-139017213D01*
X84842786Y-139161971D01*
X84991116Y-139269737D01*
X85008390Y-139282287D01*
X85099759Y-139328842D01*
X85101080Y-139329515D01*
X85151876Y-139377490D01*
X85168671Y-139445311D01*
X85146134Y-139511446D01*
X85101080Y-139550485D01*
X85008386Y-139597715D01*
X84842786Y-139718028D01*
X84698028Y-139862786D01*
X84577715Y-140028386D01*
X84484781Y-140210776D01*
X84421522Y-140405465D01*
X84394929Y-140573370D01*
X84389500Y-140607648D01*
X84389500Y-140812352D01*
X84390066Y-140815923D01*
X84421522Y-141014534D01*
X84484781Y-141209223D01*
X84577715Y-141391613D01*
X84698028Y-141557213D01*
X84842786Y-141701971D01*
X84981374Y-141802659D01*
X85008390Y-141822287D01*
X85124607Y-141881503D01*
X85190776Y-141915218D01*
X85190778Y-141915218D01*
X85190781Y-141915220D01*
X85295137Y-141949127D01*
X85385465Y-141978477D01*
X85486557Y-141994488D01*
X85587648Y-142010500D01*
X85587649Y-142010500D01*
X85792351Y-142010500D01*
X85792352Y-142010500D01*
X85994534Y-141978477D01*
X86189219Y-141915220D01*
X86371610Y-141822287D01*
X86464590Y-141754732D01*
X86537213Y-141701971D01*
X86537215Y-141701968D01*
X86537219Y-141701966D01*
X86681966Y-141557219D01*
X86681968Y-141557215D01*
X86681971Y-141557213D01*
X86780952Y-141420975D01*
X86802287Y-141391610D01*
X86895220Y-141209219D01*
X86958477Y-141014534D01*
X86990500Y-140812352D01*
X86990500Y-140607648D01*
X86958477Y-140405466D01*
X86953825Y-140391151D01*
X86951832Y-140321312D01*
X86984075Y-140265158D01*
X91797819Y-135451415D01*
X91859142Y-135417930D01*
X91928834Y-135422914D01*
X91984767Y-135464786D01*
X92009184Y-135530250D01*
X92009500Y-135539096D01*
X92009500Y-135732352D01*
X92010066Y-135735923D01*
X92041522Y-135934534D01*
X92104781Y-136129223D01*
X92197715Y-136311613D01*
X92318028Y-136477213D01*
X92462786Y-136621971D01*
X92617749Y-136734556D01*
X92628390Y-136742287D01*
X92719840Y-136788883D01*
X92721080Y-136789515D01*
X92771876Y-136837490D01*
X92788671Y-136905311D01*
X92766134Y-136971446D01*
X92721080Y-137010485D01*
X92628386Y-137057715D01*
X92462786Y-137178028D01*
X92318028Y-137322786D01*
X92197715Y-137488386D01*
X92104781Y-137670776D01*
X92041522Y-137865465D01*
X92021844Y-137989711D01*
X92009500Y-138067648D01*
X92009500Y-138272352D01*
X92010066Y-138275923D01*
X92041522Y-138474534D01*
X92104781Y-138669223D01*
X92197715Y-138851613D01*
X92318028Y-139017213D01*
X92462786Y-139161971D01*
X92611116Y-139269737D01*
X92628390Y-139282287D01*
X92719759Y-139328842D01*
X92721080Y-139329515D01*
X92771876Y-139377490D01*
X92788671Y-139445311D01*
X92766134Y-139511446D01*
X92721080Y-139550485D01*
X92628386Y-139597715D01*
X92462786Y-139718028D01*
X92318028Y-139862786D01*
X92197715Y-140028386D01*
X92104781Y-140210776D01*
X92041522Y-140405465D01*
X92014929Y-140573370D01*
X92009500Y-140607648D01*
X92009500Y-140812352D01*
X92010066Y-140815923D01*
X92041522Y-141014534D01*
X92104781Y-141209223D01*
X92197715Y-141391613D01*
X92318028Y-141557213D01*
X92462786Y-141701971D01*
X92601374Y-141802659D01*
X92628390Y-141822287D01*
X92744607Y-141881503D01*
X92810776Y-141915218D01*
X92810778Y-141915218D01*
X92810781Y-141915220D01*
X92915137Y-141949127D01*
X93005465Y-141978477D01*
X93106557Y-141994488D01*
X93207648Y-142010500D01*
X93207649Y-142010500D01*
X93412351Y-142010500D01*
X93412352Y-142010500D01*
X93614534Y-141978477D01*
X93809219Y-141915220D01*
X93991610Y-141822287D01*
X94084590Y-141754732D01*
X94157213Y-141701971D01*
X94157215Y-141701968D01*
X94157219Y-141701966D01*
X94301966Y-141557219D01*
X94301968Y-141557215D01*
X94301971Y-141557213D01*
X94400952Y-141420975D01*
X94422287Y-141391610D01*
X94515220Y-141209219D01*
X94578477Y-141014534D01*
X94610500Y-140812352D01*
X94610500Y-140607648D01*
X94578477Y-140405466D01*
X94573825Y-140391151D01*
X94571832Y-140321312D01*
X94604075Y-140265158D01*
X101960520Y-132908716D01*
X102039577Y-132771785D01*
X102080501Y-132619057D01*
X102080501Y-132460942D01*
X102080501Y-132453347D01*
X102080500Y-132453329D01*
X102080500Y-121004067D01*
X102100185Y-120937028D01*
X102148205Y-120893582D01*
X102266433Y-120833343D01*
X102457510Y-120694517D01*
X102624517Y-120527510D01*
X102763343Y-120336433D01*
X102870568Y-120125992D01*
X102943553Y-119901368D01*
X102968637Y-119742993D01*
X102980500Y-119668097D01*
X102980500Y-119431947D01*
X104980000Y-119431947D01*
X104980000Y-119668052D01*
X105016934Y-119901247D01*
X105089897Y-120125802D01*
X105197087Y-120336174D01*
X105257338Y-120419104D01*
X105257340Y-120419105D01*
X105997037Y-119679408D01*
X106014075Y-119742993D01*
X106079901Y-119857007D01*
X106172993Y-119950099D01*
X106287007Y-120015925D01*
X106350590Y-120032962D01*
X105610893Y-120772658D01*
X105693828Y-120832914D01*
X105904197Y-120940102D01*
X106128752Y-121013065D01*
X106128751Y-121013065D01*
X106361948Y-121050000D01*
X106598052Y-121050000D01*
X106831247Y-121013065D01*
X107055802Y-120940102D01*
X107266163Y-120832918D01*
X107266169Y-120832914D01*
X107349104Y-120772658D01*
X107349105Y-120772658D01*
X106609408Y-120032962D01*
X106672993Y-120015925D01*
X106787007Y-119950099D01*
X106880099Y-119857007D01*
X106945925Y-119742993D01*
X106962962Y-119679409D01*
X107702658Y-120419105D01*
X107702658Y-120419104D01*
X107762914Y-120336169D01*
X107762918Y-120336163D01*
X107870102Y-120125802D01*
X107943065Y-119901247D01*
X107980000Y-119668052D01*
X107980000Y-119431947D01*
X107943065Y-119198752D01*
X107870102Y-118974197D01*
X107762914Y-118763828D01*
X107702658Y-118680894D01*
X107702658Y-118680893D01*
X106962962Y-119420590D01*
X106945925Y-119357007D01*
X106880099Y-119242993D01*
X106787007Y-119149901D01*
X106672993Y-119084075D01*
X106609409Y-119067037D01*
X107349105Y-118327340D01*
X107349104Y-118327338D01*
X107266174Y-118267087D01*
X107055802Y-118159897D01*
X106831247Y-118086934D01*
X106831248Y-118086934D01*
X106598052Y-118050000D01*
X106361948Y-118050000D01*
X106128752Y-118086934D01*
X105904197Y-118159897D01*
X105693830Y-118267084D01*
X105610894Y-118327340D01*
X106350591Y-119067037D01*
X106287007Y-119084075D01*
X106172993Y-119149901D01*
X106079901Y-119242993D01*
X106014075Y-119357007D01*
X105997037Y-119420591D01*
X105257340Y-118680894D01*
X105197084Y-118763830D01*
X105089897Y-118974197D01*
X105016934Y-119198752D01*
X104980000Y-119431947D01*
X102980500Y-119431947D01*
X102980500Y-119431902D01*
X102943553Y-119198631D01*
X102870566Y-118974003D01*
X102763477Y-118763830D01*
X102763343Y-118763567D01*
X102624517Y-118572490D01*
X102457510Y-118405483D01*
X102266433Y-118266657D01*
X102055996Y-118159433D01*
X101831368Y-118086446D01*
X101598097Y-118049500D01*
X101598092Y-118049500D01*
X101361908Y-118049500D01*
X101361903Y-118049500D01*
X101128631Y-118086446D01*
X100904003Y-118159433D01*
X100693566Y-118266657D01*
X100610047Y-118327338D01*
X100502490Y-118405483D01*
X100502488Y-118405485D01*
X100502487Y-118405485D01*
X100335485Y-118572487D01*
X100335485Y-118572488D01*
X100335483Y-118572490D01*
X100275862Y-118654550D01*
X100196657Y-118763566D01*
X100089433Y-118974003D01*
X100016446Y-119198631D01*
X99979500Y-119431902D01*
X99979500Y-119668097D01*
X100016446Y-119901368D01*
X100089433Y-120125996D01*
X100196519Y-120336163D01*
X100196657Y-120336433D01*
X100335483Y-120527510D01*
X100502490Y-120694517D01*
X100610042Y-120772658D01*
X100693568Y-120833344D01*
X100768177Y-120871358D01*
X100811794Y-120893582D01*
X100862590Y-120941556D01*
X100879500Y-121004067D01*
X100879500Y-132239902D01*
X100859815Y-132306941D01*
X100843181Y-132327583D01*
X94822181Y-138348583D01*
X94760858Y-138382068D01*
X94691166Y-138377084D01*
X94635233Y-138335212D01*
X94610816Y-138269748D01*
X94610500Y-138260902D01*
X94610500Y-138067648D01*
X94578478Y-137865472D01*
X94578477Y-137865471D01*
X94578477Y-137865466D01*
X94573825Y-137851151D01*
X94571832Y-137781312D01*
X94604075Y-137725158D01*
X97230520Y-135098716D01*
X97309577Y-134961784D01*
X97350501Y-134809057D01*
X97350501Y-134650942D01*
X97350501Y-134643347D01*
X97350500Y-134643329D01*
X97350500Y-129589060D01*
X97350501Y-129589047D01*
X97350501Y-129420944D01*
X97350501Y-129420943D01*
X97309577Y-129268216D01*
X97288525Y-129231752D01*
X97230524Y-129131290D01*
X97230518Y-129131282D01*
X94584573Y-126485337D01*
X94551088Y-126424014D01*
X94550637Y-126421847D01*
X94519738Y-126266510D01*
X94519737Y-126266503D01*
X94519735Y-126266498D01*
X94459397Y-126120827D01*
X94459390Y-126120814D01*
X94371789Y-125989711D01*
X94371786Y-125989707D01*
X94260292Y-125878213D01*
X94260288Y-125878210D01*
X94129185Y-125790609D01*
X94129172Y-125790602D01*
X93983501Y-125730264D01*
X93983489Y-125730261D01*
X93828845Y-125699500D01*
X93828842Y-125699500D01*
X93671158Y-125699500D01*
X93671155Y-125699500D01*
X93516510Y-125730261D01*
X93516498Y-125730264D01*
X93370827Y-125790602D01*
X93370814Y-125790609D01*
X93239711Y-125878210D01*
X93239707Y-125878213D01*
X93128213Y-125989707D01*
X93128208Y-125989713D01*
X93096289Y-126037483D01*
X93042676Y-126082288D01*
X92973351Y-126090994D01*
X92910324Y-126060838D01*
X92905507Y-126056272D01*
X91886819Y-125037583D01*
X91853334Y-124976260D01*
X91850500Y-124949902D01*
X91850500Y-108354500D01*
X91870185Y-108287461D01*
X91922989Y-108241706D01*
X91974500Y-108230500D01*
X92112351Y-108230500D01*
X92112352Y-108230500D01*
X92314534Y-108198477D01*
X92509219Y-108135220D01*
X92691610Y-108042287D01*
X92841271Y-107933553D01*
X92857213Y-107921971D01*
X92857215Y-107921968D01*
X92857219Y-107921966D01*
X93001966Y-107777219D01*
X93001968Y-107777215D01*
X93001971Y-107777213D01*
X93054732Y-107704590D01*
X93122287Y-107611610D01*
X93215220Y-107429219D01*
X93278477Y-107234534D01*
X93310500Y-107032352D01*
X93310500Y-106827648D01*
X93278477Y-106625466D01*
X93215220Y-106430781D01*
X93215218Y-106430778D01*
X93215218Y-106430776D01*
X93168788Y-106339653D01*
X93122287Y-106248390D01*
X93114556Y-106237749D01*
X93001971Y-106082786D01*
X92857213Y-105938028D01*
X92691613Y-105817715D01*
X92691612Y-105817714D01*
X92691610Y-105817713D01*
X92634653Y-105788691D01*
X92509223Y-105724781D01*
X92314534Y-105661522D01*
X92139995Y-105633878D01*
X92112352Y-105629500D01*
X91907648Y-105629500D01*
X91883329Y-105633351D01*
X91705465Y-105661522D01*
X91510776Y-105724781D01*
X91328386Y-105817715D01*
X91162786Y-105938028D01*
X91018028Y-106082786D01*
X90897715Y-106248386D01*
X90804781Y-106430776D01*
X90741522Y-106625465D01*
X90714730Y-106794627D01*
X90709500Y-106827648D01*
X90709500Y-107032352D01*
X90712064Y-107048538D01*
X90741523Y-107234537D01*
X90752566Y-107268524D01*
X90754561Y-107338365D01*
X90742026Y-107368835D01*
X90735112Y-107380810D01*
X90730525Y-107388757D01*
X90690423Y-107458215D01*
X90649499Y-107610943D01*
X90649499Y-107610945D01*
X90649499Y-107779046D01*
X90649500Y-107779059D01*
X90649500Y-125163330D01*
X90649499Y-125163348D01*
X90649499Y-125329054D01*
X90649498Y-125329054D01*
X90690423Y-125481785D01*
X90719358Y-125531900D01*
X90719359Y-125531904D01*
X90719360Y-125531904D01*
X90769479Y-125618714D01*
X90769481Y-125618717D01*
X90888349Y-125737585D01*
X90888355Y-125737590D01*
X94613181Y-129462415D01*
X94646666Y-129523738D01*
X94649500Y-129550096D01*
X94649500Y-132339496D01*
X94629815Y-132406535D01*
X94577011Y-132452290D01*
X94507853Y-132462234D01*
X94444297Y-132433209D01*
X94425984Y-132411725D01*
X94425151Y-132412331D01*
X94301971Y-132242786D01*
X94157213Y-132098028D01*
X93991610Y-131977712D01*
X93978200Y-131970879D01*
X93927406Y-131922903D01*
X93910500Y-131860397D01*
X93910500Y-130899059D01*
X93910501Y-130899046D01*
X93910501Y-130730945D01*
X93910501Y-130730943D01*
X93869577Y-130578215D01*
X93838328Y-130524091D01*
X93838328Y-130524090D01*
X93790522Y-130441287D01*
X93790521Y-130441286D01*
X93790520Y-130441284D01*
X93678716Y-130329480D01*
X93678715Y-130329479D01*
X93674385Y-130325149D01*
X93674374Y-130325139D01*
X85026819Y-121677584D01*
X84993334Y-121616261D01*
X84990500Y-121589903D01*
X84990500Y-108159601D01*
X85010185Y-108092562D01*
X85058206Y-108049116D01*
X85071610Y-108042287D01*
X85237219Y-107921966D01*
X85381966Y-107777219D01*
X85381968Y-107777215D01*
X85381971Y-107777213D01*
X85434732Y-107704590D01*
X85502287Y-107611610D01*
X85595220Y-107429219D01*
X85658477Y-107234534D01*
X85690500Y-107032352D01*
X85690500Y-106827648D01*
X85658477Y-106625466D01*
X85595220Y-106430781D01*
X85595218Y-106430778D01*
X85595218Y-106430776D01*
X85548788Y-106339653D01*
X85502287Y-106248390D01*
X85494556Y-106237749D01*
X85381971Y-106082786D01*
X85237213Y-105938028D01*
X85071613Y-105817715D01*
X85071612Y-105817714D01*
X85071610Y-105817713D01*
X85014653Y-105788691D01*
X84889223Y-105724781D01*
X84694534Y-105661522D01*
X84519995Y-105633878D01*
X84492352Y-105629500D01*
X84287648Y-105629500D01*
X84263329Y-105633351D01*
X84085465Y-105661522D01*
X83890776Y-105724781D01*
X83708386Y-105817715D01*
X83542786Y-105938028D01*
X83398028Y-106082786D01*
X83277715Y-106248386D01*
X83184781Y-106430776D01*
X83121522Y-106625465D01*
X83094730Y-106794627D01*
X83089500Y-106827648D01*
X73760500Y-106827648D01*
X73760500Y-101024499D01*
X73780185Y-100957460D01*
X73832989Y-100911705D01*
X73884500Y-100900499D01*
X74107871Y-100900499D01*
X74107872Y-100900499D01*
X74167483Y-100894091D01*
X74302331Y-100843796D01*
X74417546Y-100757546D01*
X74503796Y-100642331D01*
X74531429Y-100568243D01*
X74533601Y-100562420D01*
X74575471Y-100506486D01*
X74640936Y-100482068D01*
X74709209Y-100496919D01*
X74737464Y-100518071D01*
X74787636Y-100568243D01*
X74787641Y-100568247D01*
X74889603Y-100642326D01*
X74965978Y-100697815D01*
X75094375Y-100763237D01*
X75162393Y-100797895D01*
X75162396Y-100797896D01*
X75267221Y-100831955D01*
X75372049Y-100866015D01*
X75589778Y-100900500D01*
X75589779Y-100900500D01*
X75810221Y-100900500D01*
X75810222Y-100900500D01*
X76027951Y-100866015D01*
X76237606Y-100797895D01*
X76434022Y-100697815D01*
X76612365Y-100568242D01*
X76768242Y-100412365D01*
X76897815Y-100234022D01*
X76997895Y-100037606D01*
X77066015Y-99827951D01*
X77100500Y-99610222D01*
X77100500Y-99389778D01*
X77066015Y-99172049D01*
X77031955Y-99067221D01*
X76997896Y-98962396D01*
X76997895Y-98962393D01*
X76953246Y-98874767D01*
X76897815Y-98765978D01*
X76872976Y-98731790D01*
X76768247Y-98587641D01*
X76768243Y-98587636D01*
X76612363Y-98431756D01*
X76612358Y-98431752D01*
X76434025Y-98302187D01*
X76434024Y-98302186D01*
X76434022Y-98302185D01*
X76371096Y-98270122D01*
X76237606Y-98202104D01*
X76237603Y-98202103D01*
X76027952Y-98133985D01*
X75919086Y-98116742D01*
X75810222Y-98099500D01*
X75709096Y-98099500D01*
X75642057Y-98079815D01*
X75596302Y-98027011D01*
X75586358Y-97957853D01*
X75615383Y-97894297D01*
X75621415Y-97887819D01*
X80166665Y-93342569D01*
X85178506Y-88330728D01*
X85178511Y-88330724D01*
X85188714Y-88320520D01*
X85188716Y-88320520D01*
X85300520Y-88208716D01*
X85373362Y-88082549D01*
X85379577Y-88071785D01*
X85420500Y-87919057D01*
X85420500Y-87760943D01*
X85420500Y-86574499D01*
X85440185Y-86507460D01*
X85492989Y-86461705D01*
X85544500Y-86450499D01*
X85767871Y-86450499D01*
X85767872Y-86450499D01*
X85827483Y-86444091D01*
X85962331Y-86393796D01*
X86077546Y-86307546D01*
X86163796Y-86192331D01*
X86163798Y-86192326D01*
X86193601Y-86112420D01*
X86193601Y-86112419D01*
X86193602Y-86112416D01*
X86216408Y-86081951D01*
X86235471Y-86056486D01*
X86235472Y-86056485D01*
X86235473Y-86056485D01*
X86261993Y-86046593D01*
X86300936Y-86032068D01*
X86300937Y-86032068D01*
X86315788Y-86035298D01*
G37*
%TD.AperFunction*%
%TA.AperFunction,Conductor*%
G36*
X121886971Y-128550185D02*
G01*
X121932726Y-128602989D01*
X121942670Y-128672147D01*
X121930417Y-128710794D01*
X121915924Y-128739238D01*
X121860072Y-128911132D01*
X121831800Y-129089635D01*
X121831800Y-129270364D01*
X121857408Y-129432049D01*
X121860073Y-129448871D01*
X121915922Y-129620756D01*
X121988091Y-129762396D01*
X121997974Y-129781791D01*
X122104196Y-129927996D01*
X122232003Y-130055803D01*
X122329888Y-130126919D01*
X122378212Y-130162028D01*
X122539244Y-130244078D01*
X122711129Y-130299927D01*
X122889635Y-130328200D01*
X123070365Y-130328200D01*
X123248871Y-130299927D01*
X123420756Y-130244078D01*
X123581788Y-130162028D01*
X123663879Y-130102385D01*
X123727996Y-130055803D01*
X123727998Y-130055800D01*
X123728002Y-130055798D01*
X123855798Y-129928002D01*
X123925827Y-129831613D01*
X123981156Y-129788949D01*
X124026145Y-129780500D01*
X127978432Y-129780500D01*
X128045471Y-129800185D01*
X128066113Y-129816819D01*
X129100630Y-130851336D01*
X129134115Y-130912659D01*
X129129131Y-130982351D01*
X129116051Y-131007907D01*
X129040612Y-131120809D01*
X129040602Y-131120827D01*
X128980264Y-131266498D01*
X128980261Y-131266510D01*
X128949500Y-131421153D01*
X128949500Y-131578846D01*
X128980261Y-131733489D01*
X128980264Y-131733501D01*
X129040602Y-131879172D01*
X129040609Y-131879185D01*
X129128602Y-132010874D01*
X129149480Y-132077551D01*
X129149500Y-132079765D01*
X129149500Y-137349902D01*
X129129815Y-137416941D01*
X129113181Y-137437583D01*
X124312954Y-142237809D01*
X124251631Y-142271294D01*
X124181939Y-142266310D01*
X124126006Y-142224438D01*
X124101589Y-142158974D01*
X124102800Y-142130730D01*
X124106538Y-142107129D01*
X124128200Y-141970365D01*
X124128200Y-141789635D01*
X124099927Y-141611129D01*
X124044078Y-141439244D01*
X123962028Y-141278212D01*
X123911905Y-141209223D01*
X123855803Y-141132003D01*
X123727996Y-141004196D01*
X123581791Y-140897974D01*
X123581790Y-140897973D01*
X123581788Y-140897972D01*
X123420756Y-140815922D01*
X123248871Y-140760073D01*
X123248869Y-140760072D01*
X123248867Y-140760072D01*
X123088548Y-140734680D01*
X123074612Y-140732472D01*
X123011478Y-140702544D01*
X122974547Y-140643232D01*
X122975545Y-140573370D01*
X123014155Y-140515137D01*
X123074612Y-140487527D01*
X123248871Y-140459927D01*
X123420756Y-140404078D01*
X123581788Y-140322028D01*
X123663879Y-140262385D01*
X123727996Y-140215803D01*
X123727998Y-140215800D01*
X123728002Y-140215798D01*
X123855798Y-140088002D01*
X123855800Y-140087998D01*
X123855803Y-140087996D01*
X123949234Y-139959397D01*
X123962028Y-139941788D01*
X124044078Y-139780756D01*
X124099927Y-139608871D01*
X124128200Y-139430365D01*
X124128200Y-139249635D01*
X124099927Y-139071129D01*
X124044078Y-138899244D01*
X123962028Y-138738212D01*
X123952274Y-138724786D01*
X123855803Y-138592003D01*
X123727996Y-138464196D01*
X123581791Y-138357974D01*
X123581790Y-138357973D01*
X123581788Y-138357972D01*
X123420756Y-138275922D01*
X123248871Y-138220073D01*
X123248869Y-138220072D01*
X123248867Y-138220072D01*
X123082659Y-138193747D01*
X123082658Y-138193747D01*
X123070365Y-138191800D01*
X122889635Y-138191800D01*
X122877342Y-138193747D01*
X122877340Y-138193747D01*
X122711132Y-138220072D01*
X122539241Y-138275923D01*
X122378208Y-138357974D01*
X122232003Y-138464196D01*
X122104201Y-138591998D01*
X122095817Y-138603539D01*
X122040486Y-138646204D01*
X121970873Y-138652182D01*
X121909078Y-138619575D01*
X121907819Y-138618333D01*
X117459121Y-134169635D01*
X121831800Y-134169635D01*
X121831800Y-134350364D01*
X121858305Y-134517713D01*
X121860073Y-134528871D01*
X121915922Y-134700756D01*
X121960580Y-134788403D01*
X121997974Y-134861791D01*
X122104196Y-135007996D01*
X122232003Y-135135803D01*
X122368817Y-135235202D01*
X122378212Y-135242028D01*
X122539244Y-135324078D01*
X122711129Y-135379927D01*
X122886983Y-135407779D01*
X122950115Y-135437708D01*
X122987047Y-135497019D01*
X122986049Y-135566882D01*
X122947439Y-135625115D01*
X122886982Y-135652725D01*
X122711248Y-135680559D01*
X122539433Y-135736386D01*
X122378476Y-135818397D01*
X122378472Y-135818400D01*
X122363112Y-135829558D01*
X122363112Y-135829559D01*
X122939854Y-136406300D01*
X122928168Y-136406300D01*
X122828038Y-136433130D01*
X122738263Y-136484962D01*
X122664962Y-136558263D01*
X122613130Y-136648038D01*
X122586300Y-136748168D01*
X122586300Y-136759853D01*
X122009559Y-136183112D01*
X122009558Y-136183112D01*
X121998400Y-136198472D01*
X121998397Y-136198476D01*
X121916386Y-136359433D01*
X121860559Y-136531249D01*
X121832300Y-136709668D01*
X121832300Y-136890331D01*
X121860559Y-137068750D01*
X121916386Y-137240566D01*
X121998401Y-137401529D01*
X122009558Y-137416886D01*
X122009559Y-137416886D01*
X122586300Y-136840145D01*
X122586300Y-136851832D01*
X122613130Y-136951962D01*
X122664962Y-137041737D01*
X122738263Y-137115038D01*
X122828038Y-137166870D01*
X122928168Y-137193700D01*
X122939853Y-137193700D01*
X122363112Y-137770438D01*
X122363112Y-137770439D01*
X122378477Y-137781602D01*
X122539433Y-137863613D01*
X122711249Y-137919440D01*
X122872985Y-137945057D01*
X123252249Y-137918303D01*
X123420566Y-137863613D01*
X123581528Y-137781599D01*
X123581532Y-137781597D01*
X123596886Y-137770440D01*
X123596887Y-137770439D01*
X123020148Y-137193700D01*
X123031832Y-137193700D01*
X123131962Y-137166870D01*
X123221737Y-137115038D01*
X123295038Y-137041737D01*
X123346870Y-136951962D01*
X123373700Y-136851832D01*
X123373700Y-136840146D01*
X123950440Y-137416887D01*
X123950440Y-137416886D01*
X123961597Y-137401532D01*
X123961599Y-137401528D01*
X124043613Y-137240566D01*
X124099440Y-137068750D01*
X124127700Y-136890331D01*
X124127700Y-136709669D01*
X124102199Y-136548669D01*
X124111153Y-136479375D01*
X124156149Y-136425923D01*
X124222901Y-136405283D01*
X124290214Y-136424008D01*
X124312353Y-136441589D01*
X125656661Y-137785897D01*
X125690146Y-137847220D01*
X125685162Y-137916912D01*
X125656663Y-137961258D01*
X125628210Y-137989711D01*
X125540609Y-138120814D01*
X125540602Y-138120827D01*
X125480264Y-138266498D01*
X125480261Y-138266510D01*
X125449500Y-138421153D01*
X125449500Y-138578846D01*
X125480261Y-138733489D01*
X125480264Y-138733501D01*
X125540602Y-138879172D01*
X125540609Y-138879185D01*
X125628210Y-139010288D01*
X125628213Y-139010292D01*
X125739707Y-139121786D01*
X125739711Y-139121789D01*
X125870814Y-139209390D01*
X125870827Y-139209397D01*
X125967972Y-139249635D01*
X126016503Y-139269737D01*
X126171153Y-139300499D01*
X126171156Y-139300500D01*
X126171158Y-139300500D01*
X126328844Y-139300500D01*
X126328845Y-139300499D01*
X126483497Y-139269737D01*
X126629179Y-139209394D01*
X126760289Y-139121789D01*
X126871789Y-139010289D01*
X126959394Y-138879179D01*
X126962854Y-138870827D01*
X127017163Y-138739711D01*
X127019737Y-138733497D01*
X127050500Y-138578842D01*
X127050500Y-138528362D01*
X127058167Y-138489822D01*
X127057473Y-138489636D01*
X127059984Y-138480264D01*
X127100500Y-138329057D01*
X127100500Y-137869060D01*
X127100501Y-137869047D01*
X127100501Y-137700944D01*
X127100501Y-137700943D01*
X127059577Y-137548216D01*
X127025037Y-137488390D01*
X126980524Y-137411290D01*
X126980518Y-137411282D01*
X124144353Y-134575118D01*
X124110868Y-134513795D01*
X124109561Y-134468044D01*
X124128200Y-134350365D01*
X124128200Y-134169635D01*
X124099927Y-133991129D01*
X124044078Y-133819244D01*
X123962028Y-133658212D01*
X123955202Y-133648817D01*
X123855803Y-133512003D01*
X123727996Y-133384196D01*
X123581791Y-133277974D01*
X123581790Y-133277973D01*
X123581788Y-133277972D01*
X123420756Y-133195922D01*
X123248871Y-133140073D01*
X123248869Y-133140072D01*
X123248867Y-133140072D01*
X123082659Y-133113747D01*
X123082658Y-133113747D01*
X123070365Y-133111800D01*
X122889635Y-133111800D01*
X122877342Y-133113747D01*
X122877340Y-133113747D01*
X122711132Y-133140072D01*
X122539241Y-133195923D01*
X122378208Y-133277974D01*
X122232003Y-133384196D01*
X122104196Y-133512003D01*
X121997974Y-133658208D01*
X121915923Y-133819241D01*
X121860072Y-133991132D01*
X121831800Y-134169635D01*
X117459121Y-134169635D01*
X116242298Y-132952812D01*
X116233072Y-132943586D01*
X116233071Y-132943584D01*
X116121267Y-132831780D01*
X116086792Y-132811876D01*
X116076983Y-132802986D01*
X116065382Y-132784019D01*
X116050038Y-132767926D01*
X116047506Y-132754789D01*
X116040528Y-132743380D01*
X116041023Y-132721154D01*
X116036815Y-132699319D01*
X116041786Y-132686900D01*
X116042085Y-132673528D01*
X116054520Y-132655094D01*
X116062784Y-132634454D01*
X116078930Y-132618911D01*
X116081160Y-132615606D01*
X116083335Y-132614670D01*
X116087365Y-132610791D01*
X116108002Y-132595798D01*
X116235798Y-132468002D01*
X116235800Y-132467998D01*
X116235803Y-132467996D01*
X116285891Y-132399054D01*
X116342028Y-132321788D01*
X116424078Y-132160756D01*
X116479927Y-131988871D01*
X116508200Y-131810365D01*
X116508200Y-131629668D01*
X121832300Y-131629668D01*
X121832300Y-131810331D01*
X121860559Y-131988750D01*
X121916386Y-132160566D01*
X121998401Y-132321529D01*
X122009558Y-132336886D01*
X122009559Y-132336886D01*
X122586300Y-131760145D01*
X122586300Y-131771832D01*
X122613130Y-131871962D01*
X122664962Y-131961737D01*
X122738263Y-132035038D01*
X122828038Y-132086870D01*
X122928168Y-132113700D01*
X122939853Y-132113700D01*
X122363112Y-132690438D01*
X122363112Y-132690439D01*
X122378477Y-132701602D01*
X122539433Y-132783613D01*
X122711249Y-132839440D01*
X122872985Y-132865057D01*
X123252249Y-132838303D01*
X123420566Y-132783613D01*
X123581528Y-132701599D01*
X123581532Y-132701597D01*
X123596886Y-132690440D01*
X123596887Y-132690439D01*
X123020148Y-132113700D01*
X123031832Y-132113700D01*
X123131962Y-132086870D01*
X123221737Y-132035038D01*
X123295038Y-131961737D01*
X123346870Y-131871962D01*
X123373700Y-131771832D01*
X123373700Y-131760147D01*
X123950440Y-132336887D01*
X123950440Y-132336886D01*
X123961597Y-132321532D01*
X123961599Y-132321528D01*
X124043613Y-132160566D01*
X124099440Y-131988750D01*
X124127700Y-131810331D01*
X124127700Y-131629668D01*
X124099440Y-131451249D01*
X124043613Y-131279433D01*
X123961602Y-131118477D01*
X123950439Y-131103112D01*
X123373700Y-131679851D01*
X123373700Y-131668168D01*
X123346870Y-131568038D01*
X123295038Y-131478263D01*
X123221737Y-131404962D01*
X123131962Y-131353130D01*
X123031832Y-131326300D01*
X123020147Y-131326300D01*
X123596886Y-130749559D01*
X123596886Y-130749558D01*
X123581529Y-130738401D01*
X123420566Y-130656386D01*
X123248750Y-130600559D01*
X123248752Y-130600559D01*
X123087012Y-130574941D01*
X122707749Y-130601696D01*
X122539433Y-130656386D01*
X122378476Y-130738397D01*
X122378472Y-130738400D01*
X122363112Y-130749558D01*
X122363112Y-130749559D01*
X122939854Y-131326300D01*
X122928168Y-131326300D01*
X122828038Y-131353130D01*
X122738263Y-131404962D01*
X122664962Y-131478263D01*
X122613130Y-131568038D01*
X122586300Y-131668168D01*
X122586300Y-131679853D01*
X122009559Y-131103112D01*
X122009558Y-131103112D01*
X121998400Y-131118472D01*
X121998397Y-131118476D01*
X121916386Y-131279433D01*
X121860559Y-131451249D01*
X121832300Y-131629668D01*
X116508200Y-131629668D01*
X116508200Y-131629635D01*
X116489476Y-131511422D01*
X116489451Y-131511254D01*
X116494088Y-131476922D01*
X116498515Y-131442666D01*
X116498765Y-131442300D01*
X116498804Y-131442013D01*
X116499603Y-131441074D01*
X116524350Y-131404883D01*
X119362416Y-128566819D01*
X119423739Y-128533334D01*
X119450097Y-128530500D01*
X121819932Y-128530500D01*
X121886971Y-128550185D01*
G37*
%TD.AperFunction*%
%TD*%
M02*
