M48
; DRILL file KiCad 10.0.0 date 2026-04-30T21:28:27
; FORMAT={-:-/ absolute / metric / decimal}
; #@! TF.CreationDate,2026-04-30T21:28:27-07:00
; #@! TF.GenerationSoftware,Kicad,Pcbnew,10.0.0
; #@! TF.FileFunction,Plated,1,2,PTH
FMAT,2
METRIC
; #@! TA.AperFunction,Plated,PTH,ViaDrill
T1C0.300
; #@! TA.AperFunction,Plated,PTH,ComponentDrill
T2C0.787
; #@! TA.AperFunction,Plated,PTH,ComponentDrill
T3C0.800
; #@! TA.AperFunction,Plated,PTH,ComponentDrill
T4C0.850
; #@! TA.AperFunction,Plated,PTH,ComponentDrill
T5C0.900
; #@! TA.AperFunction,Plated,PTH,ComponentDrill
T6C1.000
%
G90
G05
T1
X89.0Y-127.5
X93.75Y-126.5
X100.75Y-139.25
X105.5Y-100.0
X112.0Y-113.75
X126.25Y-138.5
X129.75Y-131.5
T2
X115.36Y-129.18
X115.36Y-131.72
X115.36Y-134.26
X115.36Y-136.8
X115.36Y-139.34
X115.36Y-141.88
X115.36Y-144.42
X115.36Y-146.96
X122.98Y-129.18
X122.98Y-131.72
X122.98Y-134.26
X122.98Y-136.8
X122.98Y-139.34
X122.98Y-141.88
X122.98Y-144.42
X122.98Y-146.96
T3
X84.39Y-106.93
X85.69Y-133.09
X85.69Y-135.63
X85.69Y-138.17
X85.69Y-140.71
X92.01Y-106.93
X93.31Y-133.09
X93.31Y-135.63
X93.31Y-138.17
X93.31Y-140.71
X102.25Y-95.75
X104.25Y-95.75
X118.23Y-107.58
X125.85Y-107.58
T4
X101.92Y-88.25
X104.46Y-88.25
X107.0Y-88.25
T5
X68.42Y-148.52
X68.75Y-130.3
X69.46Y-114.68
X70.96Y-148.52
X71.29Y-130.3
X72.0Y-114.68
X73.16Y-99.5
X75.7Y-99.5
X84.82Y-85.05
X87.36Y-85.05
X103.91Y-159.9
X106.45Y-159.9
X121.81Y-85.05
X124.35Y-85.05
X135.6Y-99.5
X138.14Y-99.5
X140.0Y-147.48
X140.07Y-129.13
X142.54Y-147.48
X142.61Y-129.13
T6
X101.48Y-119.55
X105.54Y-143.005
X105.54Y-145.545
X106.48Y-119.55
M30
